<svg width="52" height="51" viewBox="0 0 52 51" fill="none" xmlns="http://www.w3.org/2000/svg">
    <path fill-rule="evenodd" clip-rule="evenodd" d="M19.6463 0.25293L18.5549 6.59757H20.7378L19.6463 0.25293Z" fill="#1DA958" />
    <path d="M14.0329 6.31335H25.2593V8.39667H14.0329V6.31335Z" fill="#1DA958" />
    <path d="M14.0329 7.54443H25.2593V8.3967H14.0329V7.54443Z" fill="white" />
    <path d="M12.8637 8.39697H26.5068V50.2527H12.8637V8.39697Z" fill="#1DA958" />
    <path d="M23.3881 9.43896H25.415V13.3215H23.3881V9.43896Z" fill="white" />
    <path d="M21.0492 9.43835H23.0762V13.3209H21.0492V9.43835Z" fill="white" />
    <path d="M18.6327 9.43835H20.6597V13.3209H18.6327V9.43835Z" fill="white" />
    <path d="M16.2157 9.43835H18.2427V13.3209H16.2157V9.43835Z" fill="white" />
    <path d="M13.8768 9.43835H15.9038V13.3209H13.8768V9.43835Z" fill="white" />
    <path d="M23.3885 14.2679H25.4155V18.1505H23.3885V14.2679Z" fill="white" />
    <path d="M21.0497 14.2679H23.0767V18.1505H21.0497V14.2679Z" fill="white" />
    <path d="M18.6327 14.2679H20.6597V18.1505H18.6327V14.2679Z" fill="white" />
    <path d="M16.2162 14.2679H18.2432V18.1505H16.2162V14.2679Z" fill="white" />
    <path d="M13.8773 14.2679H15.9043V18.1505H13.8773V14.2679Z" fill="white" />
    <path d="M23.3885 19.0979H25.4155V22.9804H23.3885V19.0979Z" fill="white" />
    <path d="M21.0497 19.0979H23.0767V22.9804H21.0497V19.0979Z" fill="white" />
    <path d="M18.6327 19.0979H20.6597V22.9804H18.6327V19.0979Z" fill="white" />
    <path d="M16.2162 19.0979H18.2432V22.9804H16.2162V19.0979Z" fill="white" />
    <path d="M13.8773 19.0979H15.9043V22.9804H13.8773V19.0979Z" fill="white" />
    <path d="M23.3885 24.0217H25.4155V27.9043H23.3885V24.0217Z" fill="white" />
    <path d="M21.0497 24.0217H23.0767V27.9043H21.0497V24.0217Z" fill="white" />
    <path d="M18.6327 24.0217H20.6597V27.9043H18.6327V24.0217Z" fill="white" />
    <path d="M16.2162 24.0217H18.2432V27.9043H16.2162V24.0217Z" fill="white" />
    <path d="M13.8773 24.0217H15.9043V27.9043H13.8773V24.0217Z" fill="white" />
    <path d="M23.3885 28.8512H25.4155V32.7337H23.3885V28.8512Z" fill="white" />
    <path d="M21.0497 28.8512H23.0767V32.7337H21.0497V28.8512Z" fill="white" />
    <path d="M18.6327 28.8512H20.6597V32.7337H18.6327V28.8512Z" fill="white" />
    <path d="M16.2162 28.8512H18.2432V32.7337H16.2162V28.8512Z" fill="white" />
    <path d="M13.8773 28.8512H15.9043V32.7337H13.8773V28.8512Z" fill="white" />
    <path d="M23.3885 33.6812H25.4155V37.5637H23.3885V33.6812Z" fill="white" />
    <path d="M21.0497 33.6812H23.0767V37.5637H21.0497V33.6812Z" fill="white" />
    <path d="M18.6327 33.6812H20.6597V37.5637H18.6327V33.6812Z" fill="white" />
    <path d="M16.2162 33.6812H18.2432V37.5637H16.2162V33.6812Z" fill="white" />
    <path d="M13.8773 33.6812H15.9043V37.5637H13.8773V33.6812Z" fill="white" />
    <path d="M23.3885 38.5111H25.4155V42.3936H23.3885V38.5111Z" fill="white" />
    <path d="M21.0497 38.5103H23.0767V42.3928H21.0497V38.5103Z" fill="white" />
    <path d="M18.6327 38.5103H20.6597V42.3928H18.6327V38.5103Z" fill="white" />
    <path d="M16.2162 38.5103H18.2432V42.3928H16.2162V38.5103Z" fill="white" />
    <path d="M13.8773 38.5103H15.9043V42.3928H13.8773V38.5103Z" fill="white" />
    <path d="M23.3885 43.3392H25.4155V47.2218H23.3885V43.3392Z" fill="white" />
    <path d="M21.0497 43.3391H23.0767V47.2217H21.0497V43.3391Z" fill="white" />
    <path d="M18.6327 43.3391H20.6597V47.2217H18.6327V43.3391Z" fill="white" />
    <path d="M16.2162 43.3391H18.2432V47.2217H16.2162V43.3391Z" fill="white" />
    <path d="M13.8773 43.3391H15.9043V47.2217H13.8773V43.3391Z" fill="white" />
    <path d="M12.8637 49.3054H26.5068V50.1577H12.8637V49.3054Z" fill="white" />
    <path d="M-8.2016e-05 12.7533H15.0464V50.253H-8.2016e-05V12.7533Z" fill="#C6DCF4" />
    <path d="M1.09135 14.6472H13.877V16.0677H1.09135V14.6472Z" fill="white" />
    <path d="M1.09135 17.299H13.877V18.7194H1.09135V17.299Z" fill="white" />
    <path d="M1.09135 19.9503H13.877V21.3708H1.09135V19.9503Z" fill="white" />
    <path d="M1.09135 22.6017H13.877V24.0221H1.09135V22.6017Z" fill="white" />
    <path d="M1.09135 25.2535H13.877V26.674H1.09135V25.2535Z" fill="white" />
    <path d="M1.09135 27.9049H13.877V29.3253H1.09135V27.9049Z" fill="white" />
    <path d="M1.09135 30.556H13.877V31.9765H1.09135V30.556Z" fill="white" />
    <path d="M1.09135 33.2078H13.877V34.6282H1.09135V33.2078Z" fill="white" />
    <path d="M1.09135 35.8593H13.877V37.2797H1.09135V35.8593Z" fill="white" />
    <path d="M1.09135 38.4161H13.877V39.8366H1.09135V38.4161Z" fill="white" />
    <path d="M1.09135 41.0675H13.877V42.4879H1.09135V41.0675Z" fill="white" />
    <path d="M1.09135 43.719H13.877V45.1394H1.09135V43.719Z" fill="white" />
    <path d="M1.09135 46.3707H13.877V47.7912H1.09135V46.3707Z" fill="white" />
    <path d="M0.93543 11.3326H14.1108V12.8478H0.93543V11.3326Z" fill="#C6DCF4" />
    <path d="M-8.2016e-05 49.4006H15.0464V50.2529H-8.2016e-05V49.4006Z" fill="#C6DCF4" />
    <path d="M21.1274 27.2413H51.5322V50.2525H21.1274V27.2413Z" fill="#C6DCF4" />
    <path d="M20.5817 27.2411H52V33.3016H20.5817V27.2411Z" fill="#C6DCF4" />
    <path fill-rule="evenodd" clip-rule="evenodd" d="M41.0854 35.48H35.0045V47.317H41.0854V35.48ZM34.6926 35.48H28.6117V47.317H34.6926V35.48ZM28.1439 35.48H22.063V47.317H28.1439V35.48Z" fill="#C6DCF4" />
    <path d="M35.3162 35.8593H40.7734V46.9387H35.3162V35.8593Z" fill="white" />
    <path d="M28.9231 35.8588H34.3804V46.9382H28.9231V35.8588Z" fill="white" />
    <path d="M22.3743 35.8588H27.8315V46.9382H22.3743V35.8588Z" fill="white" />
    <path d="M21.1274 49.4951H51.5322V50.2527H21.1274V49.4951Z" fill="#C6DCF4" />
    <path d="M41.8649 35.1013H49.583V50.2527H41.8649V35.1013Z" fill="#C6DCF4" />
    <path d="M42.1765 35.4796H49.271V49.8734H42.1765V35.4796Z" fill="white" />
    <path d="M45.5288 35.1008H45.9966V49.8734H45.5288V35.1008Z" fill="#C6DCF4" />
</svg>
    