<svg width="52" height="51" viewBox="0 0 52 51" fill="none" xmlns="http://www.w3.org/2000/svg">
    <path fill-rule="evenodd" clip-rule="evenodd" d="M4.54492 22.6735C4.65061 21.8799 5.17907 20.987 5.91891 19.7965C6.65874 18.7053 7.71566 17.4156 8.87826 16.1259C10.3579 14.6378 11.8376 13.3482 13.1059 12.5545C14.4799 11.6617 15.3254 11.1656 16.0653 11.2648L15.9596 11.8601C15.4311 11.7609 14.6913 12.2569 13.5287 13.0505C12.2604 13.8442 10.8864 15.1339 9.40671 16.622C8.24411 17.8124 7.1872 19.1021 6.44736 20.1934C5.70752 21.2846 5.28476 22.1775 5.17907 22.8719L4.54492 22.6735Z" fill="#7DB8B5" />
    <path fill-rule="evenodd" clip-rule="evenodd" d="M14.5855 0.25293H49.6749C50.9432 0.25293 52.0001 1.24499 52.0001 2.43546V21.2846C52.0001 22.4751 50.9432 23.4671 49.6749 23.4671H14.5855C13.3172 23.4671 12.2603 22.4751 12.2603 21.2846V2.43546C12.2603 1.24499 13.3172 0.25293 14.5855 0.25293ZM18.8131 9.37987C17.3334 9.37987 16.1708 10.4711 16.1708 11.86C16.1708 13.2489 17.3334 14.3402 18.8131 14.3402C20.2928 14.3402 21.4554 13.2489 21.4554 11.86C21.4554 10.5703 20.1871 9.37987 18.8131 9.37987Z" fill="#C6DCF4" />
    <path fill-rule="evenodd" clip-rule="evenodd" d="M16.9104 2.1377H47.4551C48.0893 2.1377 48.7234 2.33611 49.1462 2.73293C49.569 3.12975 49.886 3.62578 49.886 4.22102V19.4987C49.886 20.094 49.569 20.59 49.1462 20.9868C48.7234 21.3836 48.0893 21.5821 47.4551 21.5821H16.9104C16.2762 21.5821 15.6421 21.3836 15.2193 20.9868C14.7966 20.59 14.4795 20.094 14.4795 19.4987V4.32023C14.4795 3.72499 14.7966 3.22896 15.2193 2.83214C15.6421 2.33611 16.1706 2.1377 16.9104 2.1377ZM47.3494 2.83214H16.9104C16.4876 2.83214 16.0649 3.03055 15.7478 3.22896C15.4307 3.52658 15.2193 3.8242 15.2193 4.22102V19.4987C15.2193 19.8956 15.4307 20.2924 15.7478 20.4908C16.0649 20.7884 16.4876 20.8876 16.9104 20.8876H47.4551C47.8779 20.8876 48.3007 20.6892 48.6177 20.4908C48.9348 20.1932 49.1462 19.8956 49.1462 19.4987V4.32023C49.1462 3.9234 48.9348 3.52658 48.6177 3.32817C48.3007 3.03055 47.8779 2.83214 47.3494 2.83214Z" fill="white" />
    <path fill-rule="evenodd" clip-rule="evenodd" d="M16.6994 36.364L17.7563 35.3719C18.4962 34.6775 19.7645 34.6775 20.5043 35.3719L31.4962 45.6893C32.236 46.3838 32.236 47.5742 31.4962 48.2687L30.4393 49.2607C29.6994 49.9552 28.4311 49.9552 27.6913 49.2607L16.6994 38.9433C15.9596 38.2489 15.9596 37.0584 16.6994 36.364Z" fill="#E71F61" />
    <path d="M19.3514 35.7151L18.7534 36.2762L31.3817 48.133L31.9797 47.5719L19.3514 35.7151Z" fill="#E71F61" />
    <path fill-rule="evenodd" clip-rule="evenodd" d="M2.53659 22.0783C5.9187 18.9037 11.5203 18.9037 15.0081 22.0783C18.3903 25.2529 18.3903 30.5108 15.0081 33.7846C11.626 36.9592 6.0244 36.9592 2.53659 33.6854C-0.845529 30.5108 -0.845529 25.2529 2.53659 22.0783ZM4.01626 23.368C3.27643 24.0624 3.27643 25.1537 4.01626 25.8482C4.7561 26.5426 5.9187 26.5426 6.65854 25.8482C7.39838 25.1537 7.39838 24.0624 6.65854 23.368C5.9187 22.6736 4.7561 22.6736 4.01626 23.368Z" fill="#E71F61" />
    <path fill-rule="evenodd" clip-rule="evenodd" d="M11.2031 33.7848L15.1137 30.015C15.5365 29.6182 16.2763 29.6182 16.6991 30.015L20.9267 33.9833C21.3495 34.3801 21.3495 35.0745 20.9267 35.4714L16.9105 39.2412C16.4877 39.638 15.7479 39.638 15.3251 39.2412L11.0974 35.2729C10.6747 34.9753 10.6747 34.2809 11.2031 33.7848Z" fill="#E71F61" />
    <path fill-rule="evenodd" clip-rule="evenodd" d="M19.5527 43.6058L20.0812 41.4233L22.4064 40.9272L21.8779 43.1098L19.5527 43.6058Z" fill="#E71F61" />
    <path fill-rule="evenodd" clip-rule="evenodd" d="M21.2441 45.0942L21.4555 42.8124L23.8864 42.614L23.675 44.8957L21.2441 45.0942Z" fill="#E71F61" />
    <path fill-rule="evenodd" clip-rule="evenodd" d="M22.8291 46.8801L23.4632 44.6976L25.7885 44.2015L25.1543 46.3841L22.8291 46.8801Z" fill="#E71F61" />
    <path fill-rule="evenodd" clip-rule="evenodd" d="M24.7319 48.3677L24.9433 46.086L27.3742 45.8876L27.1628 48.2685L24.7319 48.3677Z" fill="#E71F61" />
    <path fill-rule="evenodd" clip-rule="evenodd" d="M26.106 50.2529L26.7401 48.0703L29.0653 47.4751L28.4312 49.6576L26.106 50.2529Z" fill="#E71F61" />
    <path fill-rule="evenodd" clip-rule="evenodd" d="M16.2765 11.1656C16.3822 11.1656 16.5936 11.2649 16.6993 11.2649C16.805 11.2649 16.9107 11.3641 17.0164 11.4633C17.6505 11.9593 17.4391 13.1498 16.5936 14.6379C14.9025 17.614 11.2033 21.4831 8.24399 23.368C6.76431 24.2608 5.49602 24.6577 4.96756 24.1616C4.75618 24.0624 4.65049 23.864 4.65049 23.5664C4.65049 23.368 4.5448 23.2688 4.65049 23.0704C4.65049 22.9712 5.07325 22.8719 5.28464 22.8719C5.28464 23.0704 5.28464 23.368 5.28464 23.4672C5.28464 23.5664 5.39033 23.6656 5.39033 23.6656C5.7074 23.9632 6.65862 23.6656 7.92692 22.8719C10.7806 21.0862 14.4798 17.2172 16.0651 14.3402C16.6993 13.1498 17.0164 12.1577 16.6993 11.9593C16.6993 11.9593 16.5936 11.9593 16.5936 11.8601C16.5936 11.8601 16.3822 11.8601 16.2765 11.8601C16.1708 11.5625 16.1708 11.3641 16.2765 11.1656Z" fill="#C6DCF4" />
</svg>
    