<svg width="52" height="51" viewBox="0 0 52 51" fill="none" xmlns="http://www.w3.org/2000/svg">
    <path d="M30.2262 1.22064H25.9082V8.85504H30.2262V1.22064Z" fill="white" />
    <path fill-rule="evenodd" clip-rule="evenodd" d="M39.5051 14.8765L21.7737 2.18835L4.31787 14.8765V47.3496H39.5051V14.8765Z" fill="#C6DCF4" />
    <path fill-rule="evenodd" clip-rule="evenodd" d="M4.31787 15.4141L20.9468 2.72599L21.7737 2.18835L27.4698 6.16684L39.5051 15.4141V18.9625L21.8656 5.62921L4.31787 18.9625V15.4141Z" fill="white" />
    <path d="M39.5971 47.3495H4.22607V49.7151H39.5971V47.3495Z" fill="#C6DCF4" />
    <path fill-rule="evenodd" clip-rule="evenodd" d="M0 16.9196L21.8657 0.25293L43.8233 16.9196L41.4346 18.7475L21.8657 3.80131L2.38869 18.7475L0 16.9196Z" fill="#C6DCF4" />
    <path d="M31.0533 21.3282H12.6787V39.5003H31.0533V21.3282Z" fill="#C6DCF4" />
    <path d="M30.0427 22.6187H13.7812V38.3176H30.0427V22.6187Z" fill="white" />
    <path d="M30.41 28.1024H13.4136V29.2851H30.41V28.1024Z" fill="#C6DCF4" />
    <path d="M36.8414 25.0916H35.0039V48.3174H36.8414V25.0916Z" fill="white" />
    <path d="M36.8414 25.0916H35.0039V28.8551H36.8414V25.0916Z" fill="#C6DCF4" />
    <path fill-rule="evenodd" clip-rule="evenodd" d="M21.4066 11.2207H50.4384C51.2652 11.2207 52.0002 12.0809 52.0002 13.0487V24.9841C52.0002 25.9519 51.2652 26.8121 50.4384 26.8121H21.4066C20.5797 26.8121 19.8447 25.9519 19.8447 24.9841V13.0487C19.8447 12.0809 20.5797 11.2207 21.4066 11.2207Z" fill="#3478F6" />
    <path d="M41.0672 47.7798H30.6855V50.2529H41.0672V47.7798Z" fill="#3478F6" />
    <path d="M50.5301 12.6185H21.2227V25.4141H50.5301V12.6185Z" fill="#3478F6" />
    <path fill-rule="evenodd" clip-rule="evenodd" d="M28.4806 17.2421C28.2969 15.9518 27.3781 15.4142 26.4594 15.4142C25.7244 15.4142 24.9895 15.7368 24.622 16.3819C24.3463 16.812 24.2545 17.2421 24.2545 17.7798C24.3463 19.2851 25.4488 19.5002 26.3675 19.6077C27.0107 19.7153 27.5619 19.8228 27.7456 20.3604C27.7456 20.4679 27.7456 20.5755 27.7456 20.5755C27.7456 21.3282 27.0107 21.7583 26.3675 21.7583C25.8163 21.7583 25.0813 21.4357 25.0813 20.7905V20.683H24.1626V20.898C24.2545 22.1884 25.4488 22.8335 26.3675 22.8335C27.47 22.8335 28.6644 22.0808 28.6644 20.683C28.6644 20.5755 28.6644 20.3604 28.6644 20.2529C28.3887 19.0701 27.3781 18.855 26.5513 18.7475C25.9082 18.64 25.1732 18.5325 25.1732 17.8873C25.1732 17.6722 25.1732 17.4572 25.3569 17.2421C25.6326 16.9196 26.0919 16.7045 26.4594 16.7045C27.0107 16.7045 27.5619 16.9196 27.6538 17.5647L28.4806 17.2421ZM35.0955 19.0701C35.0955 19.8228 34.8198 20.4679 34.4524 20.898C34.0849 21.3282 33.4418 21.6507 32.8905 21.6507C32.2474 21.6507 31.6962 21.3282 31.3287 20.898C30.9612 20.4679 30.6856 19.8228 30.6856 19.0701C30.6856 18.3174 30.9612 17.6722 31.3287 17.2421C31.6962 16.812 32.2474 16.4895 32.8905 16.4895C33.5336 16.4895 34.0849 16.812 34.4524 17.2421C34.8198 17.6722 35.0955 18.3174 35.0955 19.0701ZM29.7668 19.0701C29.7668 20.0378 30.1343 21.0056 30.6856 21.6507C31.2368 22.2959 32.0637 22.726 32.8905 22.726C33.7174 22.726 34.5442 22.2959 35.0955 21.6507C35.6467 21.0056 36.0142 20.0378 36.0142 19.0701C36.0142 18.1024 35.6467 17.1346 35.0955 16.4895C34.5442 15.8443 33.7174 15.4142 32.8905 15.4142C32.0637 15.4142 31.2368 15.8443 30.6856 16.4895C30.1343 17.1346 29.7668 17.9948 29.7668 19.0701ZM38.2191 15.5217H37.3004V22.6185H41.0672V21.5432H38.2191V15.5217ZM43.0884 21.5432V16.4895H44.3746C45.7527 16.4895 46.4877 17.7798 46.4877 18.9626C46.4877 20.2529 45.7527 21.4357 44.3746 21.4357H43.0884V21.5432ZM42.2615 15.5217V22.6185H44.4665C46.4877 22.6185 47.4064 20.898 47.4064 19.0701C47.4064 17.3497 46.3958 15.5217 44.4665 15.5217H42.2615Z" fill="white" />
</svg>
    