<svg width="52" height="51" viewBox="0 0 52 51" fill="none" xmlns="http://www.w3.org/2000/svg">
    <path fill-rule="evenodd" clip-rule="evenodd" d="M9.12909 17.4913L12.4406 16.0472L16.8262 17.4913L21.1222 16.0472L26.0448 17.4913L30.8778 16.0472L35.1738 17.4913L39.5594 16.0472L42.8709 17.4913L52 50.2526L45.8244 48.5378L39.1119 50.2526L32.6678 48.5378L26.0448 50.2526L19.3322 48.5378L12.8881 50.2526L6.17556 48.5378L0 50.2526L9.12909 17.4913Z" fill="#C6DCF4" />
    <path fill-rule="evenodd" clip-rule="evenodd" d="M39.5596 16.0472L42.8711 17.4913L52.0002 50.2526L45.8246 48.5379L39.5596 16.0472Z" fill="#C6DCF4" />
    <path fill-rule="evenodd" clip-rule="evenodd" d="M30.8779 16.0472L35.174 17.4913L39.112 50.2526L32.6679 48.5379L30.8779 16.0472Z" fill="#C6DCF4" />
    <path fill-rule="evenodd" clip-rule="evenodd" d="M21.1225 16.0472L26.0451 17.4913V50.2526L19.3325 48.5379L21.1225 16.0472Z" fill="#C6DCF4" />
    <path fill-rule="evenodd" clip-rule="evenodd" d="M12.4408 16.0477L16.8264 17.4918L12.8883 50.2531L6.17578 48.5383L12.4408 16.0477Z" fill="#C6DCF4" />
    <path fill-rule="evenodd" clip-rule="evenodd" d="M49.4045 44.1155L43.587 38.8809L37.5904 37.2564H37.4114L31.7729 33.2853L25.9553 33.556H25.7763L25.5973 33.4658L20.0483 29.1337L15.4837 28.0507L11.0087 23.0869L10.9192 22.9966L9.57666 19.1158L9.84516 18.123L10.2032 17.9425L11.7247 22.1843L15.8417 26.8774L20.4958 28.0507L26.1343 32.3828L31.7729 32.0218L37.4114 35.9026L43.766 37.7076L43.8555 37.7979L48.957 42.4007L49.4045 44.1155Z" fill="white" />
    <path fill-rule="evenodd" clip-rule="evenodd" d="M44.0345 39.3321L43.587 38.8809L37.5904 37.2563L37.4114 35.9025L43.766 37.7076L44.0345 39.3321ZM31.7729 33.2852L25.9553 33.556V32.2925L26.0448 32.3827L31.6834 32.0217L31.7729 33.2852ZM20.4063 29.4044L20.0483 29.1337L15.4837 28.0507L15.6627 26.7871L15.7522 26.8774L20.4063 27.9604V29.4044ZM11.0087 23.1771L10.9192 23.0868L9.57666 19.206L9.84516 18.2132L10.2927 18.0327L11.4562 21.372L11.0087 23.1771Z" fill="white" />
    <path fill-rule="evenodd" clip-rule="evenodd" d="M15.5731 27.5092L8.234 38.1589L2.41644 48.7184L1.25293 48.9891L1.96894 46.6426L8.8605 34.0976L14.4096 26.6067L15.5731 27.5092Z" fill="white" />
    <path fill-rule="evenodd" clip-rule="evenodd" d="M8.1445 38.249L2.41644 48.7182L1.25293 48.989L1.96894 46.6424L8.95 34.0072L8.1445 38.249Z" fill="white" />
    <path fill-rule="evenodd" clip-rule="evenodd" d="M26.0445 0.25293C34.0101 0.25293 40.5437 6.8413 40.5437 14.8737C40.5437 17.13 39.4697 20.7401 37.8587 24.8014C34.3681 33.8266 28.3716 42.1297 25.955 47.2741C23.5385 42.1297 17.4525 33.5558 14.0514 24.5306C12.5299 20.5596 11.5454 17.13 11.5454 14.8737C11.5454 6.8413 17.9895 0.25293 26.0445 0.25293Z" fill="white" />
    <path d="M38.8939 15.047C39.0126 7.8701 33.3393 1.95501 26.2221 1.83529C19.1049 1.71556 13.239 7.43654 13.1202 14.6135C13.0015 21.7904 18.6749 27.7055 25.7921 27.8252C32.9093 27.9449 38.7752 22.2239 38.8939 15.047Z" fill="#FCBD00" />
    <path fill-rule="evenodd" clip-rule="evenodd" d="M27.6555 5.39698H29.3561V6.75075L27.6555 5.66773V5.39698ZM29.1771 14.6026H22.8225V12.5269H29.1771V14.6026ZM22.8225 15.0539H29.1771V18.5737H22.8225V15.0539ZM17.2734 10.8121L18.1684 12.5269L25.955 7.47276L33.7416 12.5269L34.6366 10.8121L25.955 5.12622L17.2734 10.8121ZM33.2046 22.0033H18.795V20.5593H33.1151V22.0033H33.2046ZM18.974 12.5269V20.108H32.9361V12.4366L25.955 7.83377L18.974 12.5269Z" fill="white" />
</svg>
    