<svg width="326" height="287" viewBox="0 0 326 287" fill="#F4FAFF" xmlns="http://www.w3.org/2000/svg">
    <path d="M44.9035 286.253C8.07291 243.77 -7.62246 183.92 3.52482 128.879C6.82441 112.581 13.0669 95.7482 26.2653 85.5951C40.0879 74.9967 58.8153 73.5717 76.2051 74.3733C93.5948 75.0858 111.43 77.4904 128.196 72.8592C153.166 65.9123 171.091 45.0717 190.175 27.6154C209.259 10.2483 235.031 -5.24862 259.734 2.14357C278.194 7.66544 291.035 24.9436 297.724 43.1123C304.412 61.192 306.196 80.6967 310.744 99.3998C315.292 118.192 323.229 137.162 338.746 148.74C346.415 154.44 355.511 157.914 363.537 163.079C383.513 175.904 396.176 199.328 395.998 223.019C395.82 246.709 382.8 269.954 362.556 282.423" fill="#F4FAFF" />
</svg>
    