
<svg width="354" height="124" viewBox="0 0 354 124" fill="none" xmlns="http://www.w3.org/2000/svg">
<path d="M128 39.139V122.915L7.1045 123.274C7.40426 119.62 -12.4921 71.3126 13.0247 43.7152C49.2015 4.54467 80.1327 36.2184 120.974 38.9672C123.279 39.1234 125.602 39.1859 128 39.139Z" fill="#F9F9F9"/>
<path d="M353.158 118.886C353.018 119.929 342.135 118.715 341.98 119.742L274.071 119.976H122.312V36.9969C124.226 36.9502 126.157 36.7945 128.15 36.5298C134.813 35.6269 141.787 33.3383 149.198 29.0259C225.809 -15.4059 288.191 -3.34052 323.22 31.3456C327.532 35.6113 331.425 40.2506 334.896 45.1391C349.764 66.2185 356.505 92.4822 353.158 118.886Z" fill="white"/>
<path d="M324.123 57.5193V120.991H128.15V65.7549H143.173V50.6848H158.196V71.0481H170.355V66.5022H191.544V74.1929H200.76V56.9121H225.436V27.3013H244.958V43.0875H249.411V29.8545H268.918V50.2489H286.604V37.732H305.535V50.2489H309.053V57.5193H324.123Z" fill="#F9F9F9"/>
<path d="M128.15 37.5298V120.555H116.474V37.8256C120.257 38.1369 124.133 38.0747 128.15 37.5298Z" fill="#F9F9F9"/>
<path d="M354 46.0351V120.274H323V32.2744C334.449 36.5455 344.824 41.1428 354 46.0351Z" fill="#F9F9F9"/>
<path d="M142.884 91.2402H141L143.304 120.275H147.85L142.884 91.2402Z" fill="#0B0754"/>
<path d="M180.123 82.771L179.718 82.8488C177.928 83.2069 176.169 82.0393 175.811 80.2489L175.39 78.1472C175.032 76.3569 176.2 74.5976 177.99 74.2396L178.395 74.1617C180.186 73.8037 181.945 74.9713 182.303 76.7616L182.723 78.8634C183.081 80.6537 181.914 82.4129 180.123 82.771Z" fill="#060632"/>
<path d="M141 91.2399C141 91.2399 151.228 86.4449 165.24 89.6364L142.868 91.2399H141Z" fill="#0B0754"/>
<path d="M147.85 120.555L142.868 91.2557C142.868 91.2557 158.545 85.9936 170.704 91.2557L177.943 120.368L147.85 120.555Z" fill="#F9F9F9"/>
<path d="M192.515 120.368H163.885C163.465 119.341 163.091 118.251 162.764 117.099C161.955 114.25 161.426 111.09 161.083 108.007C161.083 107.96 161.067 107.929 161.067 107.883C160.491 102.543 160.491 97.3896 160.569 94.3071C160.616 92.5167 160.678 91.4114 160.694 91.3647C160.756 91.3336 160.818 91.318 160.881 91.2868C162.406 90.6486 163.854 90.1037 165.255 89.621H165.271C166.439 89.2163 167.575 88.8738 168.665 88.578C170.58 88.0486 172.354 87.675 173.989 87.4103C175.92 87.099 177.679 86.9589 179.251 86.9277C179.329 86.9277 179.391 86.9277 179.469 86.9277C179.89 86.9277 180.279 86.9277 180.668 86.9277C184.591 87.0056 187.191 87.784 188.514 88.3133C188.701 88.3911 188.857 88.4534 188.981 88.5157C188.997 88.5157 189.013 88.5313 189.028 88.5313C189.184 88.5935 189.293 88.6558 189.371 88.6869C189.386 88.6869 189.386 88.7025 189.402 88.7025C189.448 88.7181 189.48 88.7492 189.511 88.7648L191.581 110.467L192.515 120.368Z" fill="#0B0754"/>
<path d="M221.052 115.667C218.187 117.006 201.125 118.111 199.474 117.644C198.634 117.395 195.115 114.297 191.581 110.483C188.234 106.871 184.856 102.636 183.719 99.5848C181.384 93.3108 183.392 87.7373 183.392 87.7373C183.392 87.7373 187.752 87.7217 189.526 88.796C191.301 89.8702 201.452 108.568 202.806 109.05C204.16 109.548 220.243 110.467 222.08 111.339C222.064 111.339 223.917 114.343 221.052 115.667Z" fill="#0B0754"/>
<path d="M179.438 87.7063V88.765C179.438 88.765 179.734 92.0655 175.655 92.5636C171.592 93.0463 168.494 91.287 168.603 88.7338C168.961 86.7567 169.365 85.4022 169.397 83.7676C169.412 83.1604 169.365 82.5221 169.257 81.7904L177.134 81.6191L179.454 81.9928L179.438 87.7063Z" fill="#FDA6A4"/>
<path d="M179.454 81.9768L179.438 87.6904C178.597 88.0796 177.663 88.3131 176.589 88.3287C172.962 88.3287 169.365 82.5061 169.241 81.7744L179.454 81.9768Z" fill="#FC9290"/>
<path d="M179.921 84.7638C179.921 84.7638 169.833 86.8188 168.634 80.5137C167.451 74.2085 165.349 70.223 171.747 68.6506C178.146 67.0782 179.859 69.2422 180.762 71.2505C181.68 73.2433 182.521 84.0632 179.921 84.7638Z" fill="#FDA6A4"/>
<path d="M182.723 66.5488C182.723 66.5488 179.905 66.3309 176.589 64.8986C173.896 63.731 170.486 65.0231 169.381 65.6147C169.412 65.4435 169.474 65.1944 169.646 64.9453C169.646 64.9453 169.147 65.3034 169.085 65.786C169.038 65.8171 169.007 65.8483 169.023 65.8638C169.023 65.8638 168.462 65.7548 168.104 65.9261C168.104 65.9261 168.353 65.895 168.447 66.0506C168.462 66.0662 168.478 66.0818 168.494 66.0973C164.29 68.1368 163.917 74.7844 165.271 76.3257C166.906 78.1783 168.867 82.3351 168.867 82.3351C168.867 82.3351 169.583 81.3543 169.272 79.7196C168.976 78.0849 170.377 78.0849 172.152 77.3532C173.927 76.6059 172.448 74.5354 173.989 73.2743C175.546 72.0133 181.244 72.745 181.166 71.7798C183.283 71.0014 182.723 66.7668 182.723 66.5488Z" fill="#9E332E"/>
<path d="M163.885 120.368C163.465 119.341 163.092 118.251 162.765 117.099C161.955 114.25 161.426 111.09 161.083 108.007C161.083 107.961 161.068 107.929 161.068 107.883C161.083 107.898 161.13 107.945 161.145 107.929C162.266 106.575 165.302 105.096 168.992 110.483C169.724 111.557 172.946 119.092 173.46 120.353H163.885V120.368Z" fill="#030231"/>
<path d="M166.875 120.368C166.797 119.886 166.89 119.263 167.264 118.5C167.264 118.5 167.731 118.189 168.369 117.831C169.303 117.301 170.58 116.663 171.156 116.772C171.265 116.788 171.405 116.819 171.561 116.865C172.931 117.192 176.138 118.189 176.62 118.765C177.025 119.247 177.57 119.839 177.944 120.368H166.875Z" fill="#FDA6A4"/>
<path d="M168.992 120.368H142.012C141.934 120.026 141.934 119.699 142.028 119.465C142.837 117.426 144.41 114.079 146.215 110.498C147.539 107.851 149.002 105.08 150.388 102.605C152.303 99.1642 154.046 96.2841 155.074 95.1009C155.883 94.1668 156.911 93.3884 157.969 92.7501C158.872 92.2052 159.807 91.7537 160.678 91.3956C160.741 91.3645 160.803 91.3489 160.865 91.3178C162.749 90.555 164.228 90.228 164.228 90.228C164.228 90.228 164.243 91.0843 164.243 92.392C164.243 96.1907 164.103 103.866 162.889 105.734C162.547 106.263 161.924 107.042 161.13 107.96C161.114 107.991 161.083 108.007 161.068 108.038C160.647 108.536 160.165 109.081 159.666 109.626C156.849 112.786 153.283 116.492 152.848 116.943C152.816 116.974 152.801 116.99 152.801 116.99H152.848L160.414 117.099L162.733 117.13L167.544 117.192C167.871 117.332 168.136 117.566 168.338 117.862C168.821 118.516 168.961 119.512 168.992 120.368Z" fill="#0B0754"/>
<path d="M221.052 115.667C218.188 117.006 201.125 118.111 199.475 117.644C198.634 117.395 195.115 114.297 191.581 110.483C191.753 110.498 193.372 107.805 200.751 114.266C200.751 114.266 202.682 115.122 207.944 114.639C213.206 114.172 219.962 114.001 221.052 115.667Z" fill="#030231"/>
<path d="M204.285 120.306H184.778C184.778 119.45 185.478 118.749 186.335 118.749H204.285V120.306Z" fill="#1DA958"/>
<path d="M204.223 99.0708H234.394L227.155 120.306H196.797L204.223 99.0708Z" fill="#1DA958"/>
<path d="M234.83 99.0708L227.606 120.306H197.248L204.674 99.0708H234.83Z" fill="#1DA958"/>
<path d="M218.577 109.486C218.39 110.295 217.58 110.949 216.771 110.949C215.961 110.949 215.448 110.295 215.634 109.486C215.821 108.676 216.631 108.022 217.44 108.022C218.25 108.022 218.764 108.676 218.577 109.486Z" fill="#FCBD00"/>
<path d="M234.83 99.0708L227.606 120.306H213.47L230.393 99.0708H234.83Z" fill="#1DA958"/>
<path d="M171.576 82.771L171.171 82.8488C169.381 83.2069 167.622 82.0393 167.264 80.2489L166.843 78.1472C166.485 76.3569 167.653 74.5976 169.443 74.2396L169.848 74.1617C171.638 73.8037 173.398 74.9713 173.756 76.7616L174.176 78.8634C174.534 80.6537 173.366 82.4129 171.576 82.771Z" fill="#060632"/>
<path d="M168.447 75.2048C168.182 74.7222 167.777 70.8146 168.852 67.6854C169.365 66.1752 170.206 65.319 171.265 64.743C171.638 64.5406 172.074 64.416 172.51 64.416L173.569 64.4316C170.082 65.9106 169.272 73.8192 169.537 74.6599C169.521 74.6288 169.521 74.6132 169.506 74.5977L168.447 75.2048Z" fill="#060632"/>
<path d="M178.629 83.4251C172.759 83.4251 169.864 78.7857 169.833 78.739L170.362 78.4121L170.097 78.5678L170.362 78.4121C170.393 78.4588 173.117 82.8024 178.629 82.8024C178.66 82.8024 178.706 82.8024 178.738 82.8024V83.4095C178.706 83.4251 178.675 83.4251 178.629 83.4251Z" fill="#060632"/>
<path d="M170.642 80.7162L170.44 80.7629C169.552 80.9497 168.665 80.3581 168.494 79.4707L168.276 78.4276C168.089 77.5403 168.68 76.6529 169.568 76.4816L169.77 76.4349C170.658 76.2481 171.545 76.8397 171.716 77.7271L171.934 78.7701C172.105 79.6575 171.529 80.5294 170.642 80.7162Z" fill="#0B0754"/>
<path d="M179.36 83.6427H178.8C178.52 83.6427 178.286 83.4092 178.286 83.129C178.286 82.8488 178.52 82.6152 178.8 82.6152H179.36C179.64 82.6152 179.874 82.8488 179.874 83.129C179.874 83.4092 179.64 83.6427 179.36 83.6427Z" fill="#060632"/>
<path d="M49.215 74.4575C49.215 74.4575 44.2955 76.9796 47.8762 82.3818C47.8762 82.3818 43.6416 82.8644 42.583 81.65C42.583 81.65 42.7386 82.1794 42.9255 82.444C42.9255 82.444 38.831 81.9147 37.3676 80.3579C35.9042 78.8011 40.4812 58.1575 51.379 62.3921C51.379 62.3921 61.0781 63.2795 58.3225 74.2084C55.5669 85.1373 59.1787 85.7445 59.1787 85.7445C59.1787 85.7445 58.0889 86.0714 57.6063 85.9936C57.6063 85.9936 56.9369 85.6044 56.8746 85.184C56.8746 85.184 56.9058 85.8223 57.0614 86.0559C57.0614 86.0559 53.0915 85.7756 51.3946 83.9697C49.6976 82.1482 48.2654 76.6526 49.215 74.4575Z" fill="#9E332E"/>
<path d="M56.2363 79.8595L55.8471 79.9218C54.0879 80.1709 52.4532 78.9254 52.2197 77.1818L51.9395 75.1267C51.6904 73.3675 52.9358 71.7329 54.6795 71.4993L55.0687 71.4526C56.8279 71.2035 58.4626 72.449 58.6961 74.1927L58.9763 76.2477C59.2254 77.9757 57.9955 79.6104 56.2363 79.8595Z" fill="#93B3F4"/>
<path d="M57.3572 96.3618C55.8938 97.4983 54.9597 101.593 52.5933 102.262C43.7194 104.8 38.9555 94.2601 37.3987 89.1225C38.5819 88.3597 39.7339 88.1417 40.3878 88.0328C41.0261 87.9238 41.7111 87.8304 42.2716 87.7837C43.2368 86.9586 44.5757 83.7204 44.6691 78.8008L45.105 78.8942L52.2819 80.4666C52.2819 80.4666 52.0796 82.7396 52.0173 84.8724C51.9861 86.5382 51.9239 86.943 52.0484 87.1454C52.6089 87.2388 53.2627 88.6711 53.2627 88.6711C53.3717 88.7956 55.598 92.0805 57.3572 96.3618Z" fill="#FDA6A4"/>
<path d="M52.2821 80.4513C52.2821 80.4513 52.0641 82.7087 52.0174 84.8571C47.9852 84.6547 45.9302 80.9339 45.1051 78.8789L52.2821 80.4513Z" fill="#FC9290"/>
<path d="M88.774 117.675C88.774 117.675 84.555 117.831 79.9779 117.846C79.433 117.846 78.8881 117.846 78.3432 117.846C74.6068 117.831 70.9483 117.706 69.3915 117.301C67.8658 116.912 61.9965 112.927 57.3105 108.116C56.9524 108.988 56.6722 109.642 56.6722 109.704C56.5321 110.778 56.2986 111.868 56.0183 112.911C54.9597 116.881 53.1849 120.213 53.1226 120.322H50.6161L31.0001 120.291C31.0001 120.291 34.7054 114.577 33.709 99.9584C33.6779 99.5848 37.1185 87.784 37.1185 87.784C37.1185 87.784 39.7962 87.317 42.8787 87.0679C43.1745 87.3325 43.7661 95.1011 47.6426 95.537C48.2653 95.6149 52.2975 101.764 52.2975 101.764L53.5118 95.4747L52.064 87.1301C53.9166 87.675 54.9286 87.8619 56.4698 88.4846C57.5129 88.9049 58.3847 89.6833 58.9296 90.6641C61.6229 95.5993 70.3878 111.51 71.2908 111.884C72.1315 112.226 75.2919 112.865 78.6235 113.472C83.0916 114.281 87.8866 115.06 87.8866 115.06L88.774 117.675Z" fill="#BED2FA"/>
<path d="M53.4807 82.6152C53.4807 82.6152 43.9373 82.4283 44.1553 76.4813C44.3577 70.5342 43.2679 66.5176 49.3707 66.393C55.4734 66.2685 56.5788 68.5726 56.9835 70.5653C57.3883 72.5736 55.956 82.5062 53.4807 82.6152Z" fill="#FDA6A4"/>
<path d="M79.9778 117.847C79.4329 117.847 78.888 117.847 78.3432 117.847C74.6068 117.831 70.9482 117.706 69.3914 117.302C67.8657 116.912 61.9965 112.927 57.3104 108.116C57.3104 108.116 58.3068 104.333 58.7271 103.695C59.1475 103.057 60.8444 109.222 64.7676 111.728C68.7064 114.235 74.8559 115.994 77.845 115.278C79.8377 114.795 80.0557 116.601 79.9778 117.847Z" fill="#93B3F4"/>
<path d="M51.597 79.3148C51.597 79.3148 51.6593 80.031 53.2161 80.1399C53.2161 80.1399 54.5239 80.2333 54.5862 79.4705C54.6017 79.4705 53.403 78.7388 51.597 79.3148Z" fill="white"/>
<path d="M52.1106 81.7122C46.6929 79.9996 45.354 74.8621 45.354 74.8154L45.93 74.6753L45.6342 74.7531L45.93 74.6753C45.9456 74.722 47.2066 79.5326 52.2975 81.1517C52.3286 81.1673 52.3597 81.1673 52.4064 81.1828L52.2352 81.7589C52.1885 81.7277 52.1573 81.7277 52.1106 81.7122Z" fill="#060632"/>
<path d="M52.7333 82.117L52.2196 81.9613C51.9549 81.8835 51.8148 81.6032 51.8926 81.3386C51.9705 81.0739 52.2507 80.9338 52.5154 81.0117L53.0291 81.1673C53.2938 81.2452 53.4339 81.5254 53.356 81.7901C53.2782 82.0547 52.998 82.1948 52.7333 82.117Z" fill="#93B3F4"/>
<path d="M54.0101 65.5994C54.0101 65.5994 51.5658 72.8386 47.9073 74.0685C44.2487 75.2984 43.0344 73.8506 43.0344 73.8506C43.0344 73.8506 45.7277 71.3752 46.0391 67.3586C46.0391 67.343 51.955 62.6414 54.0101 65.5994Z" fill="#9E332E"/>
<path d="M49.4485 67.7322C49.4485 67.7322 54.4303 67.452 55.9093 68.8687C56.9835 69.8962 56.9524 70.4255 57.0458 71.78C57.0458 71.78 59.2254 68.4172 56.9835 66.082C54.6172 63.5911 49.4485 67.7322 49.4485 67.7322Z" fill="#9E332E"/>
<path d="M53.8077 66.3774C53.8077 66.3774 52.5622 73.3053 48.0007 75.8118C48.0007 75.8118 52.4066 71.297 52.4844 66.7822C52.5778 62.2674 53.8077 66.3774 53.8077 66.3774Z" fill="#9E332E"/>
<path d="M37.3676 80.3578C38.831 81.9146 42.9255 82.444 42.9255 82.444C42.7386 82.1793 42.583 81.65 42.583 81.65C44.6847 83.3625 49.8533 82.117 49.8533 82.117C45.7277 81.2141 47.0666 75.2514 48.4678 75.0023C49.2929 70.5187 50.912 64.9296 51.6593 62.4232C51.4724 62.392 51.379 62.3764 51.379 62.3764C40.4812 58.1574 35.9042 78.801 37.3676 80.3578Z" fill="#9E332E"/>
<path d="M46.3347 79.2525L45.9455 79.2992C44.1863 79.5483 42.5516 78.3028 42.3181 76.5591L42.0378 74.5041C41.7887 72.7449 43.0342 71.1102 44.7779 70.8767L45.1671 70.8145C46.9263 70.5654 48.5609 71.8108 48.7945 73.5545L49.0747 75.6095C49.3238 77.3687 48.0783 79.0034 46.3347 79.2525Z" fill="#93B3F4"/>
<path d="M43.7504 71.733C43.5169 71.2971 44.342 67.8876 45.5408 65.241C46.1168 63.9644 47.5958 62.2519 48.6544 61.816C49.0281 61.6603 49.5418 61.7226 49.9466 61.816C50.2424 61.8783 51.0831 62.2675 51.0831 62.2675C47.6269 63.3417 44.6222 70.581 44.8402 71.3282C44.8402 71.3127 44.8246 71.2815 44.8246 71.2815L43.7504 71.733Z" fill="#93B3F4"/>
<path d="M45.5406 77.1973L45.3382 77.2285C44.4664 77.353 43.6569 76.7303 43.5323 75.8585L43.3922 74.831C43.2677 73.9591 43.8904 73.1496 44.7622 73.025L44.9646 72.9939C45.8364 72.8694 46.646 73.4921 46.7705 74.3639L46.9106 75.3914C47.0196 76.2632 46.4125 77.0728 45.5406 77.1973Z" fill="#6D89CF"/>
<path d="M68.6909 114.235C68.6909 114.235 72.7854 114.001 73.1746 114.219C73.8129 114.561 76.0236 115.978 76.3661 116.399C76.7086 116.803 77.6115 118.454 77.6115 118.454C77.6115 118.454 77.2223 118.563 77.0511 118.407C76.8798 118.251 75.541 116.834 75.541 116.834L76.911 118.921C76.911 118.921 76.4439 118.905 76.2415 118.687C76.0391 118.469 74.7781 117.177 74.7781 117.177L74.3422 117.084C74.3422 117.084 74.7937 117.442 75.0272 117.769C75.2607 118.095 75.432 118.438 75.432 118.438C75.432 118.438 75.0428 118.376 74.9182 118.313C74.7937 118.251 73.6416 117.255 73.6416 117.255L74.2488 118.08C74.2488 118.08 73.844 118.064 73.7039 117.971C73.5638 117.878 72.6764 117.052 72.5207 117.052C72.365 117.052 71.213 117.006 70.7304 116.741C70.2322 116.476 68.7065 115.885 68.7065 115.885L68.6909 114.235Z" fill="#FDA6A4"/>
<path d="M43.4237 85.9155C43.4237 85.9155 40.6836 86.7095 40.0609 87.3478C40.0609 87.3478 42.9255 94.6649 47.0511 98.0743L48.1564 97.2959V99.0707L52.282 101.78C52.282 101.764 43.2057 88.1262 43.4237 85.9155Z" fill="#93B3F4"/>
<path d="M56.0026 112.896C54.9439 116.866 53.1691 120.197 53.1069 120.306H54.508H53.1069H40.0762C40.0762 120.306 41.5864 120.306 41.5864 120.291C41.5552 120.166 43.797 114.094 40.0762 111.604C36.3554 109.113 35.001 102.979 35.001 102.979L46.8329 100.083C46.8329 100.083 51.7057 107.198 53.0913 108.552C54.15 109.595 56.6409 109.673 56.6409 109.673L56.0026 112.896Z" fill="#93B3F4"/>
<path d="M52.0639 87.1303C52.0639 87.1303 53.3249 97.0784 52.2818 101.764C52.2818 101.764 53.9788 98.6664 54.2123 98.0904L53.9321 96.3778L55.0218 96.7515C55.0218 96.7515 54.0566 88.8272 53.1848 87.4261C52.3129 86.0405 52.0016 85.9004 52.0016 85.9004L52.0639 87.1303Z" fill="#93B3F4"/>
<path d="M88.774 117.675C88.774 117.675 83.4964 117.878 78.3433 117.846C77.0667 115.854 78.6235 113.487 78.6235 113.487C83.0916 114.297 87.8867 115.075 87.8867 115.075L88.774 117.675Z" fill="#FDA6A4"/>
<path d="M89.2722 120.306H69.7651C69.7651 119.45 70.4657 118.749 71.322 118.749H89.2722V120.306Z" fill="#E71F61"/>
<path d="M119.381 99.0708L112.142 120.306H81.7838L89.2254 99.0708H119.381Z" fill="#E71F61"/>
<path d="M119.381 99.0708L112.204 120.119L112.142 120.306H82.2354L89.6614 99.0708H119.381Z" fill="#E71F61"/>
<path d="M103.564 109.486C103.377 110.296 102.567 110.95 101.758 110.95C100.948 110.95 100.434 110.296 100.621 109.486C100.808 108.677 101.618 108.023 102.427 108.023C103.237 108.023 103.75 108.677 103.564 109.486Z" fill="#FCBD00"/>
<path d="M119.381 99.0708L112.204 120.119H98.4729L115.224 99.0708H119.381Z" fill="#E71F61"/>
<path d="M68.691 115.885C68.691 115.885 58.6494 116.757 53.0916 116.507V111.059C56.7345 112.055 68.6754 114.235 68.6754 114.235L68.691 115.885Z" fill="#FDA6A4"/>
<path d="M40.061 87.3481C40.061 87.3481 34.3163 87.4727 32.5415 89.4031C30.7667 91.318 34.3007 102.169 34.3007 102.169C34.3007 102.169 45.0117 115.278 50.3672 116.212C50.3672 116.212 52.7024 116.539 53.8078 116.554C53.8078 116.554 52.7336 113.441 54.7263 111.479C54.7263 111.479 52.4378 110.841 52.3444 110.56C52.2354 110.249 40.061 87.3481 40.061 87.3481Z" fill="#BED2FA"/>
<path d="M277.497 62.6417C277.497 62.6417 271.674 60.4777 268.047 64.7278C265.961 67.1565 252.634 92.5639 252.806 94.7902C252.961 97.0164 254.238 98.1218 254.238 98.1218C254.238 98.1218 253.678 96.1757 254.098 95.1638C254.098 95.1638 253.833 98.5888 255.95 100.052C257.056 100.815 284.487 99.3205 286.869 96.0045C292.053 88.7808 280.735 85.0444 281.015 77.2447C281.156 72.6988 285.608 63.0932 277.497 62.6417Z" fill="#0B0754"/>
<path d="M283.039 78.8172L282.65 78.8951C280.922 79.2531 279.21 78.1167 278.852 76.373L278.447 74.3336C278.089 72.6055 279.225 70.893 280.969 70.5349L281.358 70.4571C283.086 70.099 284.799 71.2355 285.157 72.9791L285.562 75.0186C285.92 76.7622 284.783 78.4592 283.039 78.8172Z" fill="#93B3F4"/>
<path d="M307.933 120.275H289.734C286.651 115.371 283.927 108.755 283.304 103.602C283.008 101.157 283.164 99.0402 283.989 97.5924C286.527 93.1087 282.495 87.8311 282.495 87.8311C282.495 87.8311 288.052 89.4034 289.329 93.9805C290.637 98.651 294.171 114.157 294.171 114.157L307.684 116.944C308.322 118.532 307.933 120.275 307.933 120.275Z" fill="#93B3F4"/>
<path d="M307.933 120.275H289.734C286.651 115.371 283.927 108.755 283.304 103.601L285.997 102.776C285.997 102.776 289.407 118.36 291.4 118.609C293.392 118.843 307.933 120.275 307.933 120.275Z" fill="#6D89CF"/>
<path d="M285.188 95.226C283.787 96.4403 281.996 97.5301 279.677 98.3397C270.974 101.407 266.693 94.2452 264.825 89.2167C265.961 88.376 267.098 88.0957 267.751 87.9401C268.39 87.7844 269.059 87.6598 269.62 87.5664C270.538 86.679 271.675 83.3786 271.457 78.459L271.893 78.5213L279.147 79.6577C279.147 79.6577 279.085 81.9307 279.163 84.0636C279.225 85.7294 279.381 87.3173 279.739 87.6754C280.299 87.7377 280.642 87.7688 280.642 87.7688C280.751 87.9089 283.164 91.0381 285.188 95.226Z" fill="#FDA6A4"/>
<path d="M279.132 79.6575C279.132 79.6575 279.054 81.9304 279.148 84.0633C275.115 84.11 272.827 80.5293 271.877 78.521L279.132 79.6575Z" fill="#FC9290"/>
<path d="M288.644 102.777C288.628 102.932 286.682 109.238 286.667 109.393C285.997 114.671 284.767 120.307 284.767 120.307H282.105L264.513 120.275C264.513 120.275 266.63 113.877 261.041 104.053C260.854 103.726 260.668 103.399 260.465 103.072C259.671 101.765 264.7 87.7689 264.7 87.7689C264.7 87.7689 266.895 87.3797 269.993 87.1306C270.289 87.3952 272.437 95.2416 276.314 95.4907C281.389 95.8021 279.459 87.0527 279.459 87.0527C281.529 87.4731 282.261 87.6132 284.923 88.8898C284.923 88.8898 288.753 101.92 288.644 102.777Z" fill="#93B3F4"/>
<path d="M280.455 81.7283C280.455 81.7283 270.927 82.1331 270.756 76.186C270.6 70.2389 269.261 66.3002 275.349 65.7864C281.436 65.2727 282.666 67.5145 283.211 69.4917C283.755 71.4688 282.93 81.4792 280.455 81.7283Z" fill="#FDA6A4"/>
<path d="M278.384 78.5524C278.384 78.5524 278.493 79.253 280.05 79.2685C280.05 79.2685 281.373 79.2841 281.373 78.5213C281.389 78.5213 280.144 77.883 278.384 78.5524Z" fill="white"/>
<path d="M279.054 80.9187C273.543 79.5487 271.893 74.5046 271.877 74.4579L272.453 74.2866L272.173 74.38L272.453 74.2866C272.469 74.3333 274.026 79.0661 279.21 80.3582C279.241 80.3738 279.272 80.3738 279.319 80.3894L279.179 80.9654C279.116 80.9343 279.085 80.9187 279.054 80.9187Z" fill="#060632"/>
<path d="M279.692 81.2768L279.179 81.1522C278.914 81.09 278.758 80.8098 278.82 80.5451C278.883 80.2804 279.163 80.1247 279.428 80.187L279.941 80.3116C280.206 80.3738 280.362 80.6541 280.299 80.9187C280.222 81.1834 279.957 81.3391 279.692 81.2768Z" fill="#3A65C2"/>
<path d="M275.053 62.0967C275.053 62.0967 281.187 61.1315 283.724 66.2535C285.655 70.1455 284.051 72.5742 283.289 73.3215C283.289 73.3215 282.292 67.7324 280.408 67.2498C280.408 67.2498 279.194 66.8762 278.369 67.8414C277.544 68.8067 276.345 73.0724 274.975 73.7262C274.975 73.7262 270.725 74.7693 270.507 73.2903C270.305 71.8113 270.414 67.1876 271.488 66.4403C272.593 65.7086 275.053 62.0967 275.053 62.0967Z" fill="#0B0754"/>
<path d="M273.122 78.8167L272.733 78.8946C271.005 79.2527 269.293 78.1162 268.935 76.3725L268.53 74.3331C268.172 72.605 269.308 70.8925 271.052 70.5344L271.441 70.4566C273.169 70.0985 274.882 71.235 275.24 72.9786L275.645 75.0181C275.987 76.7617 274.851 78.4587 273.122 78.8167Z" fill="#93B3F4"/>
<path d="M270.087 71.4687C269.822 71.0483 269.448 67.6389 270.492 64.9144C270.99 63.6067 271.815 62.8594 272.827 62.3457C273.2 62.1588 273.605 62.0654 274.026 62.0654L275.053 62.081C271.675 63.3732 270.881 70.2543 271.145 70.986C271.13 70.9705 271.13 70.9393 271.114 70.9393L270.087 71.4687Z" fill="#93B3F4"/>
<path d="M272.204 76.8242L272.017 76.8709C271.145 77.0422 270.305 76.4817 270.133 75.6099L269.931 74.598C269.76 73.7261 270.32 72.8854 271.192 72.7142L271.379 72.6675C272.251 72.4962 273.091 73.0567 273.263 73.9285L273.465 74.9405C273.636 75.7967 273.06 76.6374 272.204 76.8242Z" fill="#6D89CF"/>
<path d="M264.513 120.275C264.513 120.275 266.631 113.877 261.042 104.053L263.128 101.453C263.128 101.453 266.817 111.899 271.426 114.951C276.034 117.987 281.451 117.364 282.105 120.306L264.513 120.275Z" fill="#6D89CF"/>
<path d="M264.7 87.7686C264.7 87.7686 260.901 88.0955 258.364 92.5947C255.826 97.0784 251 113.861 251 120.275H271.316C271.316 120.275 271.721 118.531 271.083 116.943L258.519 114.515C258.519 114.515 266.086 103.275 266.163 98.4328C266.226 93.5911 264.7 87.7686 264.7 87.7686Z" fill="#93B3F4"/>
<path d="M271.426 118.205C271.426 118.205 275.38 117.816 276.034 118.002C276.688 118.174 278.571 118.952 278.976 119.217C279.397 119.481 280.19 120.26 280.19 120.26C280.19 120.26 279.677 120.353 279.381 120.291C279.085 120.229 278.182 120.166 277.949 120.151C277.715 120.135 276.859 120.307 276.859 120.307H270.725L271.426 118.205Z" fill="#FDA6A4"/>
<path d="M307.264 120.306H287.757C287.757 119.45 288.457 118.75 289.314 118.75H307.264V120.306Z" fill="#0B0754"/>
<path d="M337.373 99.0713L330.134 120.306H299.791L307.217 99.0713H337.373Z" fill="#3478F6"/>
<path d="M337.373 99.0713L330.211 120.12L330.133 120.306H300.227L307.653 99.0713H337.373Z" fill="#3478F6"/>
<path d="M321.556 109.486C321.369 110.296 320.559 110.95 319.75 110.95C318.94 110.95 318.426 110.296 318.613 109.486C318.8 108.677 319.61 108.023 320.419 108.023C321.244 108.023 321.742 108.677 321.556 109.486Z" fill="#FCBD00"/>
<path d="M337.373 99.0713L330.211 120.12H316.464L333.216 99.0713H337.373Z" fill="#3478F6"/>
</svg>
