
<svg width="532" height="485" viewBox="0 0 532 485" fill="none" xmlns="http://www.w3.org/2000/svg">
    <path d="M528.061 346.577H3.93708C1.72247 346.577 0 344.855 0 342.64C0 340.426 1.72247 338.703 3.93708 338.703H528.061C530.276 338.703 531.998 340.426 531.998 342.64C531.998 344.855 530.153 346.577 528.061 346.577Z" fill="#95CC8F"/>
    <path d="M447.966 77.9946H341.542V338.703H447.966V77.9946Z" fill="#E71F60"/>
    <path d="M447.966 77.9946H394.815V338.703H447.966V77.9946Z" fill="#E81E60"/>
    <path d="M452.518 73.4424H337.113V78.1177H452.518V73.4424Z" fill="#496B6A"/>
    <path d="M452.518 73.4424H394.815V78.1177H452.518V73.4424Z" fill="#3D5958"/>
    <path d="M452.518 127.7H337.112V132.375H452.518V127.7Z" fill="#496B6A"/>
    <path d="M452.518 127.7H394.815V132.375H452.518V127.7Z" fill="#3D5958"/>
    <path d="M452.518 182.081H337.112V186.756H452.518V182.081Z" fill="#496B6A"/>
    <path d="M452.518 182.081H394.815V186.756H452.518V182.081Z" fill="#3D5958"/>
    <path d="M452.518 236.339H337.112V241.015H452.518V236.339Z" fill="#496B6A"/>
    <path d="M452.518 236.339H394.815V241.015H452.518V236.339Z" fill="#3D5958"/>
    <path d="M452.518 290.72H337.112V295.396H452.518V290.72Z" fill="#496B6A"/>
    <path d="M452.518 290.72H394.815V295.396H452.518V290.72Z" fill="#3D5958"/>
    <path d="M373.161 87.0991H359.013V118.719H373.161V87.0991Z" fill="#C6DCF4"/>
    <path d="M373.777 119.334H358.397V86.4839H373.777V119.334ZM359.628 118.104H372.546V87.7142H359.628V118.104Z" fill="#F8FCFF"/>
    <path d="M430.495 87.0991H416.346V118.719H430.495V87.0991Z" fill="#B3CFE5"/>
    <path d="M431.11 119.334H415.731V86.4839H431.11V119.334ZM416.961 118.104H429.88V87.7142H416.961V118.104Z" fill="#E9F4FF"/>
    <path d="M401.828 87.0991H387.679V118.719H401.828V87.0991Z" fill="#C6DCF4"/>
    <path d="M401.952 87.0991H394.816V118.719H401.952V87.0991Z" fill="#B3CFE5"/>
    <path d="M402.444 119.334H387.064V86.4839H402.444V119.334ZM388.295 118.104H401.213V87.7142H388.295V118.104Z" fill="#F8FCFF"/>
    <path d="M394.816 87.7142H401.213V118.104H394.816V119.334H402.444V86.4839H394.816V87.7142Z" fill="#E9F4FF"/>
    <path d="M373.161 141.357H359.013V172.977H373.161V141.357Z" fill="#C6DCF4"/>
    <path d="M373.777 173.592H358.397V140.742H373.777V173.592ZM359.628 172.361H372.546V141.972H359.628V172.361Z" fill="#F8FCFF"/>
    <path d="M430.495 141.357H416.346V172.977H430.495V141.357Z" fill="#B3CFE5"/>
    <path d="M431.11 173.592H415.731V140.742H431.11V173.592ZM416.962 172.361H429.88V141.972H416.962V172.361Z" fill="#E9F4FF"/>
    <path d="M401.828 141.357H387.68V172.977H401.828V141.357Z" fill="#C6DCF4"/>
    <path d="M401.952 141.357H394.816V172.977H401.952V141.357Z" fill="#B3CFE5"/>
    <path d="M402.444 173.592H387.064V140.742H402.444V173.592ZM388.295 172.361H401.213V141.972H388.295V172.361Z" fill="#F8FCFF"/>
    <path d="M394.816 141.972H401.213V172.361H394.816V173.592H402.444V140.742H394.816V141.972Z" fill="#E9F4FF"/>
    <path d="M373.161 195.738H359.013V227.357H373.161V195.738Z" fill="#C6DCF4"/>
    <path d="M373.777 227.973H358.397V195.123H373.777V227.973ZM359.628 226.742H372.546V196.353H359.628V226.742Z" fill="#F8FCFF"/>
    <path d="M430.495 195.738H416.346V227.357H430.495V195.738Z" fill="#B3CFE5"/>
    <path d="M431.11 227.973H415.731V195.123H431.11V227.973ZM416.961 226.742H429.88V196.353H416.961V226.742Z" fill="#E9F4FF"/>
    <path d="M401.828 195.738H387.679V227.357H401.828V195.738Z" fill="#C6DCF4"/>
    <path d="M401.952 195.738H394.816V227.357H401.952V195.738Z" fill="#B3CFE5"/>
    <path d="M402.444 227.973H387.064V195.123H402.444V227.973ZM388.295 226.742H401.213V196.353H388.295V226.742Z" fill="#F8FCFF"/>
    <path d="M394.816 196.353H401.213V226.742H394.816V227.973H402.444V195.123H394.816V196.353Z" fill="#E9F4FF"/>
    <path d="M373.161 249.996H359.013V281.616H373.161V249.996Z" fill="#C6DCF4"/>
    <path d="M373.777 282.231H358.397V249.381H373.777V282.231ZM359.628 281.001H372.546V250.611H359.628V281.001Z" fill="#F8FCFF"/>
    <path d="M430.495 249.996H416.346V281.616H430.495V249.996Z" fill="#B3CFE5"/>
    <path d="M431.11 282.231H415.731V249.381H431.11V282.231ZM416.961 281.001H429.88V250.611H416.961V281.001Z" fill="#E9F4FF"/>
    <path d="M401.828 249.996H387.679V281.616H401.828V249.996Z" fill="#C6DCF4"/>
    <path d="M401.952 249.996H394.816V281.616H401.952V249.996Z" fill="#B3CFE5"/>
    <path d="M402.444 282.231H387.064V249.381H402.444V282.231ZM388.295 281.001H401.213V250.611H388.295V281.001Z" fill="#F8FCFF"/>
    <path d="M394.816 250.611H401.213V281.001H394.816V282.231H402.444V249.381H394.816V250.611Z" fill="#E9F4FF"/>
    <path d="M373.161 304.377H359.013V335.997H373.161V304.377Z" fill="#C6DCF4"/>
    <path d="M373.777 336.612H358.397V303.762H373.777V336.612ZM359.628 335.381H372.546V304.992H359.628V335.381Z" fill="#F8FCFF"/>
    <path d="M430.495 304.377H416.346V335.997H430.495V304.377Z" fill="#B3CFE5"/>
    <path d="M431.11 336.612H415.731V303.762H431.11V336.612ZM416.961 335.381H429.88V304.992H416.961V335.381Z" fill="#E9F4FF"/>
    <path d="M401.828 304.377H387.679V335.997H401.828V304.377Z" fill="#C6DCF4"/>
    <path d="M401.952 304.377H394.816V335.997H401.952V304.377Z" fill="#B3CFE5"/>
    <path d="M402.444 336.612H387.064V303.762H402.444V336.612ZM388.295 335.381H401.213V304.992H388.295V335.381Z" fill="#F8FCFF"/>
    <path d="M394.816 304.992H401.213V335.381H394.816V336.612H402.444V303.762H394.816V304.992Z" fill="#E9F4FF"/>
    <path d="M206.943 9.58789H73.4512V338.703H206.943V9.58789Z" fill="#1EA958"/>
    <path d="M207.066 9.58789H140.258V338.703H207.066V9.58789Z" fill="#1EA958"/>
    <path d="M216.416 0.606445H64.1006V9.83398H216.416V0.606445Z" fill="#1EA958"/>
    <path d="M216.416 0.606445H140.258V9.83398H216.416V0.606445Z" fill="#1EA958"/>
    <path d="M190.948 19.9229H89.4454V32.9644H190.948V19.9229Z" fill="#C6DCF4"/>
    <path d="M191.071 19.9229H140.258V32.9644H191.071V19.9229Z" fill="#B3CFE5"/>
    <path d="M191.563 33.5795H88.9533V19.3076H191.687V33.5795H191.563ZM90.0606 32.4722H190.456V20.538H90.0606V32.4722Z" fill="white"/>
    <path d="M140.258 20.538H190.456V32.4722H140.258V33.5795H191.563V19.3076H140.258V20.538Z" fill="#EDEDED"/>
    <path d="M190.948 43.6685H89.4454V56.71H190.948V43.6685Z" fill="#C6DCF4"/>
    <path d="M191.071 43.6685H140.258V56.71H191.071V43.6685Z" fill="#B3CFE5"/>
    <path d="M191.563 57.3251H88.9533V43.0532H191.687V57.3251H191.563ZM90.0606 56.2178H190.456V44.2836H90.0606V56.2178Z" fill="white"/>
    <path d="M140.258 44.2836H190.456V56.2178H140.258V57.3251H191.563V43.0532H140.258V44.2836Z" fill="#EDEDED"/>
    <path d="M190.948 67.4141H89.4454V80.4556H190.948V67.4141Z" fill="#C6DCF4"/>
    <path d="M191.071 67.4141H140.258V80.4556H191.071V67.4141Z" fill="#B3CFE5"/>
    <path d="M191.563 81.0707H88.9533V66.7988H191.687V81.0707H191.563ZM90.0606 79.9634H190.456V68.0292H90.0606V79.9634Z" fill="white"/>
    <path d="M140.258 68.0292H190.456V79.9634H140.258V81.0707H191.563V66.7988H140.258V68.0292Z" fill="#EDEDED"/>
    <path d="M190.948 91.1592H89.4454V104.201H190.948V91.1592Z" fill="#C6DCF4"/>
    <path d="M191.071 91.1592H140.258V104.201H191.071V91.1592Z" fill="#B3CFE5"/>
    <path d="M191.563 104.816H88.9533V90.5439H191.687V104.816H191.563ZM90.0606 103.709H190.456V91.7743H90.0606V103.709Z" fill="white"/>
    <path d="M140.258 91.7743H190.456V103.709H140.258V104.816H191.563V90.667H140.258V91.7743Z" fill="#EDEDED"/>
    <path d="M190.948 114.905H89.4454V127.946H190.948V114.905Z" fill="#C6DCF4"/>
    <path d="M191.071 114.905H140.258V127.946H191.071V114.905Z" fill="#B3CFE5"/>
    <path d="M191.563 128.561H88.9533V114.29H191.687V128.561H191.563ZM90.0606 127.454H190.456V115.52H90.0606V127.454Z" fill="white"/>
    <path d="M140.258 115.52H190.456V127.454H140.258V128.561H191.563V114.413H140.258V115.52Z" fill="#EDEDED"/>
    <path d="M190.948 138.65H89.4454V151.692H190.948V138.65Z" fill="#C6DCF4"/>
    <path d="M191.071 138.65H140.258V151.692H191.071V138.65Z" fill="#B3CFE5"/>
    <path d="M191.563 152.307H88.9533V138.035H191.687V152.307H191.563ZM90.0606 151.2H190.456V139.265H90.0606V151.2Z" fill="white"/>
    <path d="M140.258 139.265H190.456V151.2H140.258V152.307H191.563V138.158H140.258V139.265Z" fill="#EDEDED"/>
    <path d="M190.948 162.396H89.4454V175.438H190.948V162.396Z" fill="#C6DCF4"/>
    <path d="M191.071 162.396H140.258V175.438H191.071V162.396Z" fill="#B3CFE5"/>
    <path d="M191.563 176.053H88.9533V161.781H191.687V176.053H191.563ZM90.0606 174.945H190.456V163.011H90.0606V174.945Z" fill="white"/>
    <path d="M140.258 163.011H190.456V174.945H140.258V176.053H191.563V161.904H140.258V163.011Z" fill="#EDEDED"/>
    <path d="M190.948 186.142H89.4454V199.183H190.948V186.142Z" fill="#C6DCF4"/>
    <path d="M191.071 186.142H140.258V199.183H191.071V186.142Z" fill="#B3CFE5"/>
    <path d="M191.563 199.798H88.9533V185.526H191.687V199.798H191.563ZM90.0606 198.691H190.456V186.757H90.0606V198.691Z" fill="white"/>
    <path d="M140.258 186.757H190.456V198.691H140.258V199.798H191.563V185.649H140.258V186.757Z" fill="#EDEDED"/>
    <path d="M190.948 210.01H89.4454V223.052H190.948V210.01Z" fill="#C6DCF4"/>
    <path d="M191.071 210.01H140.258V223.052H191.071V210.01Z" fill="#B3CFE5"/>
    <path d="M191.563 223.544H88.9533V209.272H191.687V223.544H191.563ZM90.0606 222.437H190.456V210.502H90.0606V222.437Z" fill="white"/>
    <path d="M140.258 210.502H190.456V222.437H140.258V223.544H191.563V209.395H140.258V210.502Z" fill="#EDEDED"/>
    <path d="M190.948 233.755H89.4454V246.797H190.948V233.755Z" fill="#C6DCF4"/>
    <path d="M191.071 233.755H140.258V246.797H191.071V233.755Z" fill="#B3CFE5"/>
    <path d="M191.563 247.289H88.9533V233.14H191.687V247.289H191.563ZM90.0606 246.182H190.456V234.247H90.0606V246.182Z" fill="white"/>
    <path d="M140.258 234.247H190.456V246.182H140.258V247.289H191.563V233.14H140.258V234.247Z" fill="#EDEDED"/>
    <path d="M190.948 257.501H89.4454V270.543H190.948V257.501Z" fill="#C6DCF4"/>
    <path d="M191.071 257.501H140.258V270.543H191.071V257.501Z" fill="#B3CFE5"/>
    <path d="M191.563 271.158H88.9533V256.886H191.687V271.158H191.563ZM90.0606 269.927H190.456V257.993H90.0606V269.927Z" fill="white"/>
    <path d="M140.258 257.993H190.456V269.927H140.258V271.158H191.563V256.886H140.258V257.993Z" fill="#EDEDED"/>
    <path d="M190.948 281.247H89.4454V294.288H190.948V281.247Z" fill="#C6DCF4"/>
    <path d="M191.071 281.247H140.258V294.288H191.071V281.247Z" fill="#B3CFE5"/>
    <path d="M191.563 294.903H88.9533V280.631H191.687V294.903H191.563ZM90.0606 293.673H190.456V281.739H90.0606V293.673Z" fill="white"/>
    <path d="M140.258 281.739H190.456V293.673H140.258V294.903H191.563V280.631H140.258V281.739Z" fill="#EDEDED"/>
    <path d="M150.716 304.992H129.678V338.703H150.716V304.992Z" fill="#C6DCF4"/>
    <path d="M150.839 304.992H140.258V338.703H150.839V304.992Z" fill="#B3CFE5"/>
    <path d="M129.185 304.377V338.703H130.293V337.596V318.649V305.484H150.224V318.649V325.416V326.646H151.332V304.377H129.185Z" fill="#F8FCFF"/>
    <path d="M151.332 338.703V304.377H140.258V305.484H150.224V338.703H151.332Z" fill="#E9F4FF"/>
    <path d="M121.926 304.992H80.7101V326.277H121.926V304.992Z" fill="#C6DCF4"/>
    <path d="M122.05 304.992H101.38V326.277H122.05V304.992Z" fill="#B3CFE5"/>
    <path d="M122.542 326.769H80.095V304.377H122.542V326.769ZM81.3253 325.662H121.434V305.607H81.3253V325.662Z" fill="white"/>
    <path d="M101.38 305.484H121.311V325.662H101.38V326.769H122.542V304.377H101.38V305.484Z" fill="#EDEDED"/>
    <path d="M199.807 304.992H158.591V326.277H199.807V304.992Z" fill="#C6DCF4"/>
    <path d="M199.807 304.992H179.137V326.277H199.807V304.992Z" fill="#B3CFE5"/>
    <path d="M200.422 326.769H157.975V304.377H200.422V326.769ZM159.206 325.662H199.315V305.607H159.206V325.662Z" fill="white"/>
    <path d="M179.137 305.484H199.192V325.662H179.137V326.769H200.422V304.377H179.137V305.484Z" fill="#EDEDED"/>
    <path d="M305.985 60.8931V38.3779H259.109V71.1049L232.288 76.8875V338.703H316.32V58.6785L305.985 60.8931Z" fill="#0168B5"/>
    <path d="M305.985 38.3779H274.365V338.703H316.32V58.6785L305.985 60.8931V38.3779Z" fill="#0168B5"/>
    <path d="M282.978 307.084H265.507V338.704H282.978V307.084Z" fill="#C6DCF4"/>
    <path d="M282.978 307.084H274.365V338.704H282.978V307.084Z" fill="#B3CFE5"/>
    <path d="M264.892 306.469V338.704H266.122V337.473V321.602V307.699H282.363V321.602V328.861V330.091H283.593V306.469H264.892Z" fill="#F8FCFF"/>
    <path d="M283.593 338.704V306.469H274.365V307.699H282.363V338.704H283.593Z" fill="#E9F4FF"/>
    <path d="M282.978 84.1465H265.507V107.892H282.978V84.1465Z" fill="#C6DCF4"/>
    <path d="M282.978 84.1465H274.242V107.892H282.978V84.1465Z" fill="#B3CFE5"/>
    <path d="M283.593 108.63H264.892V83.6543H283.593V108.63ZM266.122 107.4H282.363V84.8846H266.122V107.4Z" fill="#F8FCFF"/>
    <path d="M274.242 84.7616H282.362V107.4H274.242V108.63H283.593V83.5312H274.242V84.7616Z" fill="#E9F4FF"/>
    <path d="M257.387 84.1465H239.916V107.892H257.387V84.1465Z" fill="#C6DCF4"/>
    <path d="M257.879 108.63H239.178V83.6543H257.879V108.63ZM240.531 107.4H256.771V84.8846H240.531V107.4Z" fill="#F8FCFF"/>
    <path d="M308.692 84.1465H291.221V107.892H308.692V84.1465Z" fill="#B3CFE5"/>
    <path d="M309.184 108.63H290.483V83.6543H309.184V108.63ZM291.836 107.4H308.077V84.8846H291.836V107.4Z" fill="#E9F4FF"/>
    <path d="M282.978 116.012H265.507V139.758H282.978V116.012Z" fill="#C6DCF4"/>
    <path d="M282.978 116.012H274.242V139.758H282.978V116.012Z" fill="#B3CFE5"/>
    <path d="M283.593 140.373H264.892V115.397H283.593V140.373ZM266.122 139.142H282.363V116.627H266.122V139.142Z" fill="#F8FCFF"/>
    <path d="M274.242 116.627H282.362V139.142H274.242V140.373H283.593V115.397H274.242V116.627Z" fill="#E9F4FF"/>
    <path d="M257.387 116.012H239.916V139.758H257.387V116.012Z" fill="#C6DCF4"/>
    <path d="M257.879 140.373H239.178V115.397H257.879V140.373ZM240.531 139.142H256.771V116.627H240.531V139.142Z" fill="#F8FCFF"/>
    <path d="M308.692 116.012H291.221V139.758H308.692V116.012Z" fill="#B3CFE5"/>
    <path d="M309.184 140.373H290.483V115.397H309.184V140.373ZM291.836 139.142H308.077V116.627H291.836V139.142Z" fill="#E9F4FF"/>
    <path d="M282.978 147.878H265.507V171.623H282.978V147.878Z" fill="#C6DCF4"/>
    <path d="M282.978 147.878H274.242V171.623H282.978V147.878Z" fill="#B3CFE5"/>
    <path d="M283.593 172.239H264.892V147.263H283.593V172.239ZM266.122 171.008H282.363V148.493H266.122V171.008Z" fill="#F8FCFF"/>
    <path d="M274.242 148.493H282.362V171.008H274.242V172.239H283.593V147.263H274.242V148.493Z" fill="#E9F4FF"/>
    <path d="M257.387 147.878H239.916V171.623H257.387V147.878Z" fill="#C6DCF4"/>
    <path d="M257.879 172.239H239.178V147.263H257.879V172.239ZM240.531 171.008H256.771V148.493H240.531V171.008Z" fill="#F8FCFF"/>
    <path d="M308.692 147.878H291.221V171.623H308.692V147.878Z" fill="#B3CFE5"/>
    <path d="M309.184 172.239H290.483V147.263H309.184V172.239ZM291.836 171.008H308.077V148.493H291.836V171.008Z" fill="#E9F4FF"/>
    <path d="M282.978 179.744H265.507V203.489H282.978V179.744Z" fill="#C6DCF4"/>
    <path d="M282.978 179.744H274.242V203.489H282.978V179.744Z" fill="#B3CFE5"/>
    <path d="M283.593 204.104H264.892V179.128H283.593V204.104ZM266.122 202.874H282.363V180.359H266.122V202.874Z" fill="#F8FCFF"/>
    <path d="M274.242 180.359H282.362V202.874H274.242V204.104H283.593V179.128H274.242V180.359Z" fill="#E9F4FF"/>
    <path d="M257.387 179.744H239.916V203.489H257.387V179.744Z" fill="#C6DCF4"/>
    <path d="M257.879 204.104H239.178V179.128H257.879V204.104ZM240.531 202.874H256.771V180.359H240.531V202.874Z" fill="#F8FCFF"/>
    <path d="M308.692 179.744H291.221V203.489H308.692V179.744Z" fill="#B3CFE5"/>
    <path d="M309.184 204.104H290.483V179.128H309.184V204.104ZM291.836 202.874H308.077V180.359H291.836V202.874Z" fill="#E9F4FF"/>
    <path d="M282.978 211.609H265.507V235.355H282.978V211.609Z" fill="#C6DCF4"/>
    <path d="M282.978 211.609H274.242V235.355H282.978V211.609Z" fill="#B3CFE5"/>
    <path d="M283.593 235.97H264.892V210.994H283.593V235.97ZM266.122 234.74H282.363V212.224H266.122V234.74Z" fill="#F8FCFF"/>
    <path d="M274.242 212.224H282.362V234.74H274.242V235.97H283.593V210.994H274.242V212.224Z" fill="#E9F4FF"/>
    <path d="M257.387 211.609H239.916V235.355H257.387V211.609Z" fill="#C6DCF4"/>
    <path d="M257.879 235.97H239.178V210.994H257.879V235.97ZM240.531 234.74H256.771V212.224H240.531V234.74Z" fill="#F8FCFF"/>
    <path d="M308.692 211.609H291.221V235.355H308.692V211.609Z" fill="#B3CFE5"/>
    <path d="M309.184 235.97H290.483V210.994H309.184V235.97ZM291.836 234.74H308.077V212.224H291.836V234.74Z" fill="#E9F4FF"/>
    <path d="M282.978 243.352H265.507V267.098H282.978V243.352Z" fill="#C6DCF4"/>
    <path d="M282.978 243.352H274.242V267.098H282.978V243.352Z" fill="#B3CFE5"/>
    <path d="M283.593 267.836H264.892V242.86H283.593V267.836ZM266.122 266.605H282.363V244.09H266.122V266.605Z" fill="#F8FCFF"/>
    <path d="M274.242 243.967H282.362V266.605H274.242V267.836H283.593V242.737H274.242V243.967Z" fill="#E9F4FF"/>
    <path d="M257.387 243.352H239.916V267.098H257.387V243.352Z" fill="#C6DCF4"/>
    <path d="M257.879 267.836H239.178V242.86H257.879V267.836ZM240.531 266.605H256.771V244.09H240.531V266.605Z" fill="#F8FCFF"/>
    <path d="M308.692 243.352H291.221V267.098H308.692V243.352Z" fill="#B3CFE5"/>
    <path d="M309.184 267.836H290.483V242.86H309.184V267.836ZM291.836 266.605H308.077V244.09H291.836V266.605Z" fill="#E9F4FF"/>
    <path d="M282.978 275.218H265.507V298.964H282.978V275.218Z" fill="#C6DCF4"/>
    <path d="M282.978 275.218H274.242V298.964H282.978V275.218Z" fill="#B3CFE5"/>
    <path d="M283.593 299.579H264.892V274.603H283.593V299.579ZM266.122 298.349H282.363V275.833H266.122V298.349Z" fill="#F8FCFF"/>
    <path d="M274.242 275.833H282.362V298.349H274.242V299.579H283.593V274.603H274.242V275.833Z" fill="#E9F4FF"/>
    <path d="M257.387 275.218H239.916V298.964H257.387V275.218Z" fill="#C6DCF4"/>
    <path d="M257.879 299.579H239.178V274.603H257.879V299.579ZM240.531 298.349H256.771V275.833H240.531V298.349Z" fill="#F8FCFF"/>
    <path d="M308.692 275.218H291.221V298.964H308.692V275.218Z" fill="#B3CFE5"/>
    <path d="M309.184 299.579H290.483V274.603H309.184V299.579ZM291.836 298.349H308.077V275.833H291.836V298.349Z" fill="#E9F4FF"/>
    <path d="M257.387 307.084H239.916V330.829H257.387V307.084Z" fill="#C6DCF4"/>
    <path d="M257.879 331.445H239.178V306.469H257.879V331.445ZM240.531 330.214H256.771V307.699H240.531V330.214Z" fill="#F8FCFF"/>
    <path d="M308.692 307.084H291.221V330.829H308.692V307.084Z" fill="#B3CFE5"/>
    <path d="M309.184 331.445H290.483V306.469H309.184V331.445ZM291.836 330.214H308.077V307.699H291.836V330.214Z" fill="#E9F4FF"/>
    <path d="M415.608 415.353H116.39C109.992 415.353 104.825 410.186 104.825 403.788V202.751C104.825 196.353 109.992 191.186 116.39 191.186H415.608C422.006 191.186 427.173 196.353 427.173 202.751V403.788C427.173 410.186 422.006 415.353 415.608 415.353Z" fill="#28374D"/>
    <path d="M415.608 191.309H265.999V415.476H415.608C422.006 415.476 427.173 410.309 427.173 403.911V202.751C427.173 196.476 422.006 191.309 415.608 191.309Z" fill="#28374D"/>
    <path d="M399.614 404.895H132.261C131.646 404.895 131.154 404.403 131.154 403.788V202.997C131.154 202.382 131.646 201.89 132.261 201.89H399.614C400.229 201.89 400.721 202.382 400.721 202.997V403.788C400.844 404.28 400.352 404.895 399.614 404.895Z" fill="#C6DCF4"/>
    <path d="M399.614 201.767H265.999V404.772H399.614C400.229 404.772 400.721 404.28 400.721 403.665V202.997C400.844 202.259 400.352 201.767 399.614 201.767Z" fill="#B3CFE5"/>
    <path d="M117.989 309.421C121.387 309.421 124.141 306.667 124.141 303.269C124.141 299.872 121.387 297.118 117.989 297.118C114.592 297.118 111.838 299.872 111.838 303.269C111.838 306.667 114.592 309.421 117.989 309.421Z" fill="#334159"/>
    <path d="M350.277 201.767H334.037L287.161 216.654L282.486 201.767H277.933L283.101 217.884L215.432 239.292L203.498 201.644H198.946L211.249 240.522L184.182 249.135L169.048 201.767H164.496L179.998 250.611L152.07 259.469L133.738 201.767H132.261C131.646 201.767 131.154 202.259 131.154 202.874V207.918L147.887 260.7L131.154 265.99V270.542L149.24 264.76L162.774 307.453L131.154 317.418V321.971L164.004 311.513L169.664 329.353L131.154 337.719V342.148L171.017 333.536L187.75 386.44L131.4 404.28C131.646 404.526 131.892 404.649 132.261 404.649H144.811L189.103 390.623L193.532 404.649H198.084L193.163 389.27L221.092 380.412L228.72 404.649H233.272L225.152 379.181L252.219 370.569L263.046 404.649H267.598L256.402 369.216L324.071 347.808L342.034 404.649H346.586L328.131 346.454L385.588 328.245L400.598 375.613V361.218L389.771 327.015L400.598 323.57V319.018L388.418 322.832L377.591 288.751L400.598 283.83V279.401L376.36 284.691L364.795 248.027L400.721 236.708V232.156L363.442 243.967L350.277 201.767ZM345.848 202.628L359.382 245.321L301.925 263.53L288.391 220.837L345.848 202.628ZM231.55 290.351L299.218 268.943L308.938 299.455L239.178 314.589L231.55 290.351ZM234.871 315.45L207.066 321.478L200.299 300.194L227.366 291.581L234.871 315.45ZM284.331 222.067L297.865 264.76L230.196 286.168L216.662 243.475L284.331 222.067ZM212.479 244.828L226.013 287.521L198.946 296.134L185.412 253.441L212.479 244.828ZM153.423 263.653L181.352 254.794L194.885 297.487L166.957 306.345L153.423 263.653ZM168.187 310.405L196.116 301.547L202.76 322.463L173.97 328.737L168.187 310.405ZM191.933 385.333L175.323 332.798L204.113 326.523L219.861 376.352L191.933 385.333ZM224.045 375.244L208.419 325.662L236.225 319.633L251.112 366.632L224.045 375.244ZM255.295 365.278L240.531 318.772L310.291 303.639L323.087 343.871L255.295 365.278ZM384.481 324.308L327.024 342.517L314.351 302.654L373.408 289.859L384.481 324.308ZM372.3 285.676L313.244 298.471L303.401 267.59L360.858 249.381L372.3 285.676Z" fill="white"/>
    <path d="M265.999 404.895H267.722L265.999 399.236V404.895Z" fill="#E9F4FF"/>
    <path d="M350.277 201.767H334.037L287.161 216.654L282.485 201.767H277.933L283.101 217.884L265.999 223.298V227.85L284.331 222.067L297.865 264.76L265.999 274.849V279.401L299.218 268.82L308.938 299.332L265.999 308.683V313.112L310.168 303.516L322.964 343.748L265.999 361.834V366.386L324.317 347.931L342.28 404.772H346.832L328.377 346.577L385.834 328.368L400.844 375.736V361.341L390.017 327.138L400.844 323.693V319.141L388.664 322.955L377.837 288.875L400.844 283.953V279.524L376.606 284.814L365.041 248.15L400.967 236.831V232.279L363.688 244.09L350.277 201.767ZM288.514 220.837L345.971 202.628L359.505 245.321L302.048 263.53L288.514 220.837ZM384.48 324.308L327.024 342.517L314.351 302.654L373.407 289.859L384.48 324.308ZM372.3 285.676L313.244 298.471L303.401 267.59L360.858 249.381L372.3 285.676Z" fill="#E9F4FF"/>
    <path d="M291.098 304.5C291.098 290.228 279.041 278.663 264.4 279.647C251.973 280.509 241.885 290.72 241.269 303.27C241.023 308.068 242.131 312.497 244.222 316.435L263.415 351.622C264.277 353.222 266.614 353.222 267.476 351.622L287.284 317.542C289.745 313.728 291.098 309.299 291.098 304.5Z" fill="#E71F60"/>
    <path d="M266.122 279.647V352.73C266.737 352.607 267.229 352.237 267.476 351.622L287.284 317.542C289.622 313.728 290.975 309.299 290.975 304.5C291.098 290.721 279.902 279.647 266.122 279.647Z" fill="#E71F60"/>
    <path d="M278.249 307.418C279.819 300.737 275.676 294.048 268.995 292.478C262.314 290.907 255.625 295.05 254.054 301.732C252.484 308.413 256.627 315.102 263.308 316.672C269.989 318.242 276.678 314.099 278.249 307.418Z" fill="#E8B216"/>
    <path d="M278.672 304.5C278.672 297.61 273.135 292.074 266.245 292.074V316.927C273.012 316.927 278.672 311.39 278.672 304.5Z" fill="#FCBC01"/>
    <path d="M199.807 222.929C199.807 218.745 196.239 215.301 191.933 215.547C188.242 215.793 185.289 218.868 185.166 222.559C185.043 223.913 185.412 225.266 186.027 226.374L191.687 236.708C191.933 237.201 192.671 237.201 192.917 236.708L198.823 226.62C199.438 225.635 199.807 224.282 199.807 222.929Z" fill="#C16772"/>
    <path d="M192.548 215.546V237.077C192.671 237.077 192.917 236.954 192.917 236.708L198.823 226.619C199.561 225.512 199.93 224.159 199.93 222.805C199.807 218.868 196.608 215.546 192.548 215.546Z" fill="#B25464"/>
    <path d="M196.239 222.929C196.239 224.897 194.639 226.62 192.548 226.62C190.456 226.62 188.857 225.02 188.857 222.929C188.857 220.96 190.456 219.238 192.548 219.238C194.639 219.238 196.239 220.837 196.239 222.929Z" fill="#DDA76C"/>
    <path d="M196.239 222.929C196.239 220.96 194.639 219.238 192.548 219.238V226.62C194.516 226.497 196.239 224.897 196.239 222.929Z" fill="#CC9156"/>
    <path d="M383.004 363.31C383.004 359.127 379.436 355.682 375.13 355.928C371.439 356.174 368.486 359.25 368.363 362.941C368.24 364.294 368.609 365.648 369.224 366.755L374.884 377.09C375.13 377.582 375.868 377.582 376.114 377.09L382.02 367.001C382.635 366.017 383.004 364.786 383.004 363.31Z" fill="#C16772"/>
    <path d="M375.622 356.051V377.582C375.745 377.582 375.991 377.459 375.991 377.213L381.897 367.124C382.635 366.017 383.004 364.663 383.004 363.31C383.004 359.25 379.682 356.051 375.622 356.051Z" fill="#B25464"/>
    <path d="M379.313 363.31C379.313 365.279 377.714 367.001 375.622 367.001C373.654 367.001 371.931 365.402 371.931 363.31C371.931 361.219 373.531 359.619 375.622 359.619C377.714 359.619 379.313 361.342 379.313 363.31Z" fill="#DDA76C"/>
    <path d="M379.313 363.31C379.313 361.342 377.714 359.619 375.622 359.619V367.001C377.714 367.001 379.313 365.402 379.313 363.31Z" fill="#CC9156"/>
    <path d="M169.172 367.985C169.172 364.786 166.465 362.326 163.266 362.449C160.559 362.695 158.345 364.909 158.099 367.616C158.099 368.723 158.345 369.708 158.714 370.569L163.02 378.32C163.266 378.689 163.758 378.689 163.881 378.32L168.31 370.815C168.925 370.077 169.172 369.093 169.172 367.985Z" fill="#C16772"/>
    <path d="M163.635 362.572V378.689C163.758 378.689 163.881 378.566 164.004 378.443L168.433 370.938C168.925 370.077 169.295 369.093 169.295 368.108C169.172 365.032 166.711 362.572 163.635 362.572Z" fill="#B25464"/>
    <path d="M166.465 367.985C166.465 369.461 165.234 370.692 163.758 370.692C162.282 370.692 161.051 369.461 161.051 367.985C161.051 366.509 162.282 365.278 163.758 365.278C165.234 365.278 166.465 366.509 166.465 367.985Z" fill="#DDA76C"/>
    <path d="M166.465 367.985C166.465 366.509 165.235 365.278 163.758 365.278V370.815C165.235 370.815 166.465 369.585 166.465 367.985Z" fill="#CC9156"/>
    <path d="M390.017 258.239C390.017 255.04 387.31 252.58 384.111 252.703C381.405 252.949 379.19 255.163 378.944 257.87C378.944 258.977 379.19 259.962 379.559 260.823L383.865 268.574C384.112 268.943 384.604 268.943 384.727 268.574L389.156 261.069C389.648 260.331 390.017 259.346 390.017 258.239Z" fill="#C16772"/>
    <path d="M384.481 252.703V268.82C384.604 268.82 384.727 268.697 384.85 268.574L389.279 261.069C389.771 260.208 390.14 259.223 390.14 258.239C390.017 255.163 387.556 252.703 384.481 252.703Z" fill="#B25464"/>
    <path d="M387.187 258.239C387.187 259.716 385.957 260.946 384.481 260.946C383.004 260.946 381.774 259.716 381.774 258.239C381.774 256.763 383.004 255.533 384.481 255.533C385.957 255.533 387.187 256.763 387.187 258.239Z" fill="#DDA76C"/>
    <path d="M387.187 258.239C387.187 256.763 385.957 255.533 384.48 255.533V261.069C385.957 260.946 387.187 259.716 387.187 258.239Z" fill="#CC9156"/>
    <path d="M150.47 294.288C150.47 292.074 148.625 290.228 146.287 290.474C144.319 290.597 142.842 292.197 142.719 294.165C142.719 294.903 142.842 295.642 143.211 296.257L146.164 301.793C146.287 302.039 146.656 302.039 146.779 301.793L149.855 296.503C150.224 295.765 150.47 295.026 150.47 294.288Z" fill="#C16772"/>
    <path d="M146.533 290.474V301.916C146.656 301.916 146.656 301.793 146.779 301.793L149.855 296.503C150.224 295.888 150.47 295.272 150.47 294.534C150.47 292.197 148.748 290.474 146.533 290.474Z" fill="#B25464"/>
    <path d="M146.533 296.257C147.62 296.257 148.502 295.376 148.502 294.288C148.502 293.201 147.62 292.32 146.533 292.32C145.446 292.32 144.565 293.201 144.565 294.288C144.565 295.376 145.446 296.257 146.533 296.257Z" fill="#DDA76C"/>
    <path d="M148.502 294.288C148.502 293.181 147.641 292.32 146.533 292.32V296.257C147.641 296.257 148.502 295.396 148.502 294.288Z" fill="#CC9156"/>
    <path d="M326.778 220.591C326.778 218.376 324.932 216.531 322.595 216.777C320.626 216.9 319.027 218.499 319.027 220.468C319.027 221.206 319.15 221.944 319.519 222.56L322.472 228.096C322.595 228.342 322.964 228.342 323.087 228.096L326.163 222.806C326.655 222.067 326.778 221.329 326.778 220.591Z" fill="#C16772"/>
    <path d="M322.964 216.777V228.219C323.087 228.219 323.087 228.096 323.21 228.096L326.286 222.806C326.655 222.19 326.901 221.575 326.901 220.837C326.778 218.499 325.055 216.777 322.964 216.777Z" fill="#B25464"/>
    <path d="M324.809 220.591C324.809 221.698 323.948 222.56 322.841 222.56C321.734 222.56 320.872 221.698 320.872 220.591C320.872 219.484 321.734 218.623 322.841 218.623C323.948 218.623 324.809 219.484 324.809 220.591Z" fill="#DDA76C"/>
    <path d="M324.809 220.591C324.809 219.484 323.948 218.623 322.841 218.623V222.56C323.948 222.56 324.809 221.698 324.809 220.591Z" fill="#CC9156"/>
    <path d="M267.721 393.453C221.707 393.453 184.305 356.051 184.305 310.036C184.305 264.021 221.707 226.619 267.721 226.619C313.736 226.619 351.138 264.021 351.138 310.036C351.261 355.928 313.736 393.453 267.721 393.453ZM267.721 239.907C229.089 239.907 197.592 271.28 197.592 310.036C197.592 348.792 228.966 380.165 267.721 380.165C306.354 380.165 337.851 348.792 337.851 310.036C337.851 271.28 306.354 239.907 267.721 239.907Z" fill="#28374D"/>
    <path d="M322.636 363.693L318.161 367.914L353.535 405.412L358.01 401.191L322.636 363.693Z" fill="#CE8DAE"/>
    <path d="M424.959 484.498C422.867 484.498 420.652 483.637 419.176 482.037L350.031 408.832C346.955 405.633 347.201 400.589 350.4 397.513C353.599 394.437 358.643 394.683 361.719 397.882L430.864 471.087C433.94 474.286 433.694 479.33 430.495 482.406C428.896 483.76 426.927 484.498 424.959 484.498Z" fill="#618D8E"/>
    <path d="M267.721 226.496C267.229 226.496 266.614 226.496 266.122 226.496V239.907C266.614 239.907 267.229 239.907 267.721 239.907C306.354 239.907 337.851 271.28 337.851 310.036C337.851 348.792 306.477 380.165 267.721 380.165C267.229 380.165 266.614 380.165 266.122 380.165V393.576C266.614 393.576 267.229 393.576 267.721 393.576C313.736 393.576 351.138 356.174 351.138 310.159C351.261 263.898 313.736 226.496 267.721 226.496Z" fill="#28374D"/>
    </svg>
    