<?xml version="1.0" encoding="utf-8"?>
<svg viewBox="364.056 179.347 315.335 142.12" xmlns="http://www.w3.org/2000/svg">
  <g transform="matrix(1, 0, 0, 1, 211.10766, 89.560003)">
    <path class="st0" d="M427.61,220.35v5.89h7.64v3.92h-18.91v-3.92h7.72v-5.89h-7.72v-3.92h18.91v3.92H427.61z" style="fill: rgb(0, 104, 180);"/>
    <path class="st0" d="M425.86,185.62c5.94,0,9.68,4.41,9.68,9.71c0,5.3-3.71,9.71-9.68,9.71c-5.92,0-9.76-4.41-9.76-9.71 C416.1,190.03,420.02,185.62,425.86,185.62z M432.05,195.33c0-2.88-1.88-5.78-6.18-5.78c-4.22,0-6.29,2.93-6.27,5.81 c0.03,2.83,2.07,5.75,6.27,5.75C430.08,201.11,432.05,198.18,432.05,195.33z" style="fill: rgb(0, 104, 180);"/>
    <path class="st0" d="M425.22,164.16c0.75-2.07,2.9-2.96,4.3-2.93c4.12,0,5.73,3.23,5.73,6.64v6.13h-18.93v-6.19 c0-3.25,1.88-5.83,5.33-5.83c1.07,0,2.66,0.51,3.49,2.18H425.22z M423.69,167.82c-0.19-2.85-4.14-2.9-4.14,0v2.4h4.14V167.82z M426.97,170.22h4.87v-2.4c0-3.9-4.87-3.74-4.87,0V170.22z" style="fill: rgb(0, 104, 180);"/>
    <path class="st0" d="M425.86,131.55c5.94,0,9.68,4.41,9.68,9.71s-3.71,9.71-9.68,9.71c-5.92,0-9.76-4.41-9.76-9.71 S420.02,131.55,425.86,131.55z M432.05,141.26c0-2.88-1.88-5.78-6.18-5.78c-4.22,0-6.29,2.93-6.27,5.81 c0.03,2.83,2.07,5.75,6.27,5.75C430.08,147.05,432.05,144.12,432.05,141.26z" style="fill: rgb(0, 104, 180);"/>
    <path class="st0" d="M454.04,216.81c-1.59,1.5-2.23,3.28-2.18,4.87c0.08,3.77,3.01,5.81,6.32,5.81c3.33,0,6.13-2.07,6.13-5.81 c0-1.67-0.7-3.6-2.5-5.14l2.07-2.66c2.72,2.23,3.98,4.73,3.98,7.8c0,6.27-4.62,9.63-9.68,9.63c-5.05,0-9.87-3.36-9.87-9.63 c0-2.74,1-5.27,3.53-7.37L454.04,216.81z" style="fill: rgb(0, 104, 180);"/>
    <path class="st0" d="M448.71,192.04H452v4.23h15.54v3.92H452v4.25h-3.28V192.04z" style="fill: rgb(0, 104, 180);"/>
    <path class="st0" d="M467.54,177.73v3.82h-18.91v-6.05c0-4.46,3.23-6.67,6.4-6.67c3.2,0,6.29,2.21,6.29,6.64v2.26H467.54z M455.04,172.7c-1.32,0-3.01,0.97-3.01,2.8v2.23h5.86v-2.23C457.89,173.66,456.3,172.7,455.04,172.7z" style="fill: rgb(0, 104, 180);"/>
    <path class="st0" d="M458.15,139.79c5.94,0,9.68,4.41,9.68,9.71c0,5.3-3.71,9.71-9.68,9.71c-5.92,0-9.76-4.41-9.76-9.71 C448.39,144.2,452.31,139.79,458.15,139.79z M464.34,149.5c0-2.88-1.88-5.78-6.18-5.78c-4.22,0-6.29,2.93-6.27,5.81 c0.03,2.83,2.07,5.75,6.27,5.75C462.38,155.28,464.34,152.35,464.34,149.5z" style="fill: rgb(0, 104, 180);"/>
    <path class="st0" d="M452.05,117.51v7.24h4.31v-7.13h3.47v7.13h4.22v-7.24h3.47v11.02h-18.83v-11.02H452.05z" style="fill: rgb(0, 104, 180);"/>
    <path class="st0" d="M448.71,102.51h7.45l-7.45-6.43v-4.65l8.39,7.15l10.44-7.2v4.52l-7.96,5.57l1.05,1.05h6.91v3.9h-18.82V102.51z " style="fill: rgb(0, 104, 180);"/>
  </g>
  <rect x="411.8" y="102.96" transform="matrix(0, -1, 1, 0, 532.551172, 619.882818)" class="st0" width="28.18" height="2.96" style="fill: rgb(0, 104, 180);"/>
  <g transform="matrix(1, 0, 0, 1, 211.10766, 89.560003)">
    <rect x="260.32" y="102.62" class="st1" width="18.65" height="50.56" style="fill: rgb(29, 169, 88);"/>
  </g>
  <g transform="matrix(1, 0, 0, 1, 211.10766, 89.560003)">
    <rect x="260.32" y="168.44" class="st2" width="18.65" height="62.83" style="fill: rgb(231, 31, 97);"/>
  </g>
  <g transform="matrix(1, 0, 0, 1, 211.10766, 89.560003)">
    <rect x="260.32" y="90.35" class="st3" width="60.09" height="12.27" style="fill: rgb(252, 189, 0);"/>
  </g>
  <path class="st2" d="M299.69,111.74c-11.44,0-20.72,9.28-20.72,20.72c0,11.44,9.28,20.72,20.72,20.72 c11.44,0,20.72-9.28,20.72-20.72C320.4,121.02,311.13,111.74,299.69,111.74z" transform="matrix(1, 0, 0, 1, 211.10766, 89.560003)" style="fill: rgb(231, 31, 97);"/>
  <g transform="matrix(1, 0, 0, 1, 211.10766, 89.560003)">
    <polygon class="st3" points="389.16,90.35 375.07,90.35 338.71,153.18 352.8,153.18 &#9;" style="fill: rgb(252, 189, 0);"/>
  </g>
  <path class="st0" d="M239.53,121.76c4.65-3.17,7.7-8.51,7.7-14.56c0-9.74-7.89-17.63-17.63-17.63v29.12v6.14v29.12 c9.74,0,17.63-7.89,17.63-17.63C247.24,130.26,244.18,124.93,239.53,121.76z" transform="matrix(1, 0, 0, 1, 211.10766, 89.560003)" style="fill: rgb(0, 104, 180);"/>
  <polygon class="st1" points="187.02,90.35 220.69,153.24 153.34,153.24 " transform="matrix(1, 0, 0, 1, 211.10766, 89.560003)" style="fill: rgb(29, 169, 88);"/>
  <polygon class="st0" points="278.97,199.86 314.45,168.44 314.45,231.3 " transform="matrix(1, 0, 0, 1, 211.10766, 89.560003)" style="fill: rgb(0, 104, 180);"/>
  <polygon class="st1" points="328.38,90.35 353.96,126.71 374.97,90.35 " transform="matrix(1, 0, 0, 1, 211.10766, 89.560003)" style="fill: rgb(29, 169, 88);"/>
  <polygon class="st1" points="355.88,168.41 389.56,231.3 322.21,231.3 " transform="matrix(1, 0, 0, 1, 211.10766, 89.560003)" style="fill: rgb(29, 169, 88);"/>
</svg>