<svg version="1.1" id="Слой_1" xmlns="http://www.w3.org/2000/svg" xmlns:xlink="http://www.w3.org/1999/xlink" x="0px" y="0px"
	 viewBox="0 0 321 70" style="enable-background:new 0 0 321 70;" xml:space="preserve">
<style type="text/css">
	.st0{fill:#FAEB00;}
</style>
<title>Artboard</title>
<desc>Created with Sketch.</desc>
<g>
	<g>
		<path d="M301.6,27.9h6.6v-7.6h6.1v7.6h6.6V8.9h-6.6v6.7h-6.1V8.9h-6.6V27.9z M261.3,14.3c1.4-0.9,3.3-1.6,4.9-1.6
			c0.8,0,2.7,0.1,2.7,1.7c0,1.6-1.6,1.6-2.2,1.6h-3.3v4.1h2.9c0.9,0,2.7,0.1,2.7,1.6c0,0.6-0.4,1.8-2.7,1.8c-2.3,0-3.8-0.6-5.7-1.8
			l-1.7,4.5c3.6,2.1,6.9,2.3,8.5,2.3c7.6,0,8.5-4.4,8.5-5.8c0-2-1.2-4-3.8-4.7V18c1.7-0.7,2.7-2.4,2.7-4.4c0-4.4-4.7-5.3-7.5-5.3
			c-2.7,0-5.7,0.8-7.7,1.9L261.3,14.3z M247,6.5c3,0,6.1-1.2,7.5-4.4l-4.3-1.6c-0.5,2.2-2.4,2.3-3.2,2.3c-0.8,0-2.6-0.1-3.1-2.3
			l-4.3,1.6C240.8,5.3,244,6.5,247,6.5 M236.6,8.9v18.9h6.5l6.6-10.4v10.4h6.6V8.9h-6.4l-6.6,10.1V8.9H236.6z M192.5,23.8V13.3
			c-2.2,0-4.5,1.6-4.5,5.3C188,22.1,190.3,23.8,192.5,23.8 M198.4,13.3v10.5c2.2,0,4.5-1.6,4.5-5.2
			C202.9,14.9,200.6,13.3,198.4,13.3 M192.1,36.1v-7.9c-4,0-10.5-1.6-10.5-9.8c0-8.1,6.5-9.8,10.5-9.7V0.4h6.6v8.2
			c4,0,10.5,1.6,10.5,9.7c0,8.2-6.5,9.8-10.5,9.8v7.9H192.1z M162.7,23.8V13.3c-2.2,0-4.5,1.6-4.5,5.3
			C158.1,22.1,160.4,23.8,162.7,23.8 M168.5,13.3v10.5c2.2,0,4.5-1.6,4.5-5.2C173,14.9,170.7,13.3,168.5,13.3 M162.2,36.1v-7.9
			c-4,0-10.5-1.6-10.5-9.8c0-8.1,6.5-9.8,10.5-9.7V0.4h6.6v8.2c4,0,10.5,1.6,10.5,9.7c0,8.2-6.5,9.8-10.5,9.8v7.9H162.2z M139.3,6.5
			c3,0,6.1-1.2,7.5-4.4l-4.3-1.6c-0.5,2.2-2.4,2.3-3.2,2.3c-0.8,0-2.6-0.1-3.2-2.3l-4.3,1.6C133.2,5.3,136.3,6.5,139.3,6.5
			 M128.9,8.9v18.9h6.4l6.6-10.4v10.4h6.6V8.9h-6.4l-6.6,10.1V8.9H128.9z M88.4,6v6.3h2.4c3.3,0,3.6-2,3.6-3.2C94.4,7.8,94,6,90.8,6
			h-2.1H88.4z M81.2,27.9V0h11.2c7.6,0,9.7,5.4,9.7,9.2c0,3.8-2.2,9.2-9.7,9.2h-4.1v9.5H81.2z M232.5,8.9v18.9h-6.6v-2.1h-0.1
			c-1.2,1.9-3.5,2.7-5.6,2.7c-5.5,0-9.4-4.7-9.4-10.1c0-5.4,3.8-10.1,9.4-10.1c2.1,0,4.4,0.8,5.8,2.5V8.9H232.5z M221.8,14.1
			c-2.7,0-4.3,2-4.3,4.3c0,2.4,1.6,4.2,4.3,4.2c2.7,0,4.3-1.9,4.3-4.2C226.1,16.1,224.5,14.1,221.8,14.1 M124.8,8.9v18.9h-6.6v-2.1
			h-0.1c-1.2,1.9-3.5,2.7-5.6,2.7c-5.5,0-9.4-4.7-9.4-10.1c0-5.4,3.8-10.1,9.4-10.1c2.1,0,4.4,0.8,5.8,2.5V8.9H124.8z M114.1,14.1
			c-2.7,0-4.3,2-4.3,4.3c0,2.4,1.6,4.2,4.3,4.2c2.7,0,4.3-1.9,4.3-4.2C118.4,16.1,116.8,14.1,114.1,14.1 M298.3,19.2v0.7h-13.9
			c0,2.7,1.4,4.2,4.1,4.2c1.4,0,2.4-0.5,3.2-1.7h6.4c-1.1,4.5-5.2,6.5-9.5,6.5c-6.2,0-10.8-3.5-10.8-10.1c0-6.3,4.3-10.1,10.3-10.1
			C294.6,8.7,298.3,12.7,298.3,19.2 M284.5,16h7.7c-0.3-1.8-2-3-3.8-3C286.5,13,284.9,14.1,284.5,16 M91.8,58.1h-2l-1,5.9h1.9
			c4.4,0,5.2-1.2,5.5-2.8C96.5,59.4,96.1,58.1,91.8,58.1 M103.8,61.2c-0.3,1.9-0.9,3.8-2.3,5.1c-3,3-7.5,3.2-10.3,3.3H80.1l4.7-27.8
			h19l-0.9,5.5H91.4l-0.9,5.6h3.3c2.5,0,5.6,0.3,7.8,2.2C103.4,56.5,104.3,58.6,103.8,61.2 M123.8,64.8h-10.5l-2.8,4.8h-8.1
			l15.9-27.8h8.3l6.4,27.8h-8.1L123.8,64.8z M122.7,59.2l-1.6-8.9H121l-4.6,8.9H122.7z M175.5,41.8h-7.7l-4.6,27.8l7.6,0l2-12.1h0.1
			l7.8,12.1l9.9,0L180.3,55l13.8-13.2h-9.4l-11.1,11.5h-0.1L175.5,41.8z M146.1,41.8l-1.7,10.4h10.1l1.7-10.4h7.4l-4.5,27.8h-7.4
			l1.9-12h-10.1l-1.9,12h-7.4l4.5-27.8H146.1z"/>
	</g>
	<g>
		<rect x="2.3" y="2.3" class="st0" width="65" height="65"/>
		<path d="M2.3,2.3h65v65h-65V2.3z M0,69.6h69.6V0H0V69.6z"/>
		<g>
			<path d="M34.8,42.7l-20,20l-7.9-7.9l20-20l-4.2-4.2v-8.2l-2.9-2.9v7.2l-2.5,2.5L7.1,19.1l-2.5,2.5c0-1.9,0.4-7.4,5-11.9
				c5-4.8,10.4-2.6,12.3-0.8L32.1,19l-2.6,2.6l5.3,5.3l5.3-5.3L37.5,19L47.7,8.8c1.9-1.8,7.3-4,12.3,0.8c4.6,4.6,5,10,5,11.9
				l-2.5-2.5L52.3,29.2l-2.5-2.5v-7.2l-2.9,2.9v8.2l-4.2,4.2l20,20l-7.9,7.9L34.8,42.7z"/>
		</g>
	</g>
</g>
</svg>
