<?xml version="1.0" encoding="utf-8"?>
<svg version="1.1" id="Layer_1" xmlns="http://www.w3.org/2000/svg" xmlns:xlink="http://www.w3.org/1999/xlink" x="0px" y="0px" viewBox="0 0 148.7 40.1" style="enable-background:new 0 0 148.7 40.1;" xml:space="preserve">
    <style type="text/css">
        .st0{fill:#FFED00;}
        .st1{fill:#1D1D1B;}
    </style>
    <g>
        <g>
            <g>
                <rect x="0.4" y="2.7" class="st0" width="37.3" height="37.3"/>
                <g>
                    <path class="st1" d="M52.8,11c2.1-0.4,3.5-2.3,3.4-4.4c0-3.3-2.3-4.8-5.4-4.8h-6.1v15.7h4.1v-6l0,0l3.8,6h5.1L52.8,11z
                        M48.8,4.9h0.4c1.3,0,2.8,0.2,2.8,1.9s-1.5,2-2.8,2h-0.4V4.9z M70.4,6.8h-3.8v1c-0.8-0.9-2.1-1.4-3.3-1.4C60.3,6.5,57.9,9,58,12
                        c0,0,0,0.1,0,0.1c-0.1,3,2.2,5.6,5.2,5.7c0,0,0.1,0,0.1,0c1.3,0.1,2.5-0.5,3.2-1.5l0,0v1.2h3.8L70.4,6.8z M64.3,9.7
                        c1.3-0.1,2.4,0.9,2.4,2.2c0,0.1,0,0.2,0,0.2c0,1.3-1.1,2.4-2.4,2.4c-1.3,0-2.4-1.1-2.4-2.4c-0.1-1.3,0.9-2.4,2.2-2.4
                        C64.1,9.7,64.2,9.7,64.3,9.7 M76.9,2.7c0,1.2-1,2.1-2.1,2.1s-2.1-1-2.1-2.1c0-1.2,1-2.1,2.1-2.1C75.9,0.6,76.9,1.5,76.9,2.7
                        M72.9,6.8h3.8v10.7h-3.8L72.9,6.8z M83.3,17.4h-3.8V9.9h-1.3V6.8h1.3V5.4c-0.2-1.3,0.2-2.7,1.1-3.7C81.5,0.6,82.9,0,84.3,0
                        c0.6,0,1.1,0.1,1.6,0.4v3.2c-0.4-0.2-0.9-0.3-1.3-0.3c-1,0-1.3,0.6-1.3,1.8v1.7h2.6v3.1h-2.6V17.4z M91.3,17.4h-3.7V9.9h-1.3
                        V6.8h1.3V5.4c-0.2-1.3,0.2-2.7,1.1-3.7C89.6,0.6,90.9,0,92.4,0c0.6,0,1.1,0.1,1.6,0.4v3.2c-0.4-0.2-0.9-0.3-1.3-0.3
                        c-1,0-1.3,0.6-1.3,1.8v1.7H94v3.1h-2.7L91.3,17.4z M106.2,12.4c0-3.6-2.1-5.9-5.8-5.9c-3.5,0-5.9,2.1-5.9,5.7s2.6,5.7,6.2,5.7
                        c2.4,0,4.8-1.1,5.4-3.6h-3.6c-0.4,0.7-1.1,1.1-1.8,1c-1.2,0.1-2.2-0.7-2.4-1.8c0-0.2,0-0.4,0-0.5h8L106.2,12.4z M98.3,10.6
                        c0.3-1.2,1.6-1.9,2.8-1.6c0.8,0.2,1.4,0.8,1.6,1.6H98.3z M111.9,2.7c0,1.2-1,2.1-2.1,2.1c-1.2,0-2.1-0.9-2.1-2.1
                        c0-1.2,1-2.1,2.1-2.1C111,0.6,111.9,1.5,111.9,2.7 M107.9,6.8h3.8v10.7h-3.8V6.8z M121.2,9.5c-0.6-0.3-1.3-0.5-2-0.5
                        c-0.4,0-1.2,0.2-1.2,0.7c0,0.7,1.2,0.8,1.7,0.9c1.8,0.4,3.1,1.2,3.1,3.2c0,2.8-2.6,4-5,4c-1.5,0-3-0.4-4.3-1.2l1.4-2.6
                        c0.9,0.6,1.9,1,3,1.1c0.5,0,1.2-0.2,1.2-0.8c0-0.8-1.2-0.9-2.4-1.2c-1.4-0.2-2.5-1.4-2.4-2.8c0-2.6,2.4-3.8,4.7-3.8
                        c1.2,0,2.4,0.2,3.5,0.7L121.2,9.5z M135.8,12.4c0-3.6-2.1-5.9-5.8-5.9c-3.5,0-5.9,2.1-5.9,5.7s2.6,5.7,6.2,5.7
                        c2.4,0,4.8-1.1,5.4-3.6H132c-0.3,0.7-1.1,1.1-1.8,1c-1.2,0.2-2.2-0.7-2.4-1.8c0-0.2,0-0.4,0-0.5h8L135.8,12.4z M127.9,10.6
                        c0.2-1,1.2-1.8,2.2-1.7c1,0,1.9,0.7,2.1,1.7H127.9z M141.3,8.2L141.3,8.2c0.8-1.2,2.1-1.8,3.4-1.7c2.9,0,4,1.8,4,4.4v6.6H145
                        v-5.2c0-1,0.2-2.8-1.7-2.8c-1.5,0-2,1.1-2,2.5v5.5h-3.8V6.8h3.8L141.3,8.2z M50.9,27.5h0.3c1.1,0,2.4,0.1,2.1,1.5
                        s-1.4,1.5-2.4,1.5h-0.5L50.9,27.5z M51.1,40.1c2.9,0,5.8-1.1,6.4-4.4c0.3-2.2-0.4-3.7-2.6-4l0,0c1.3-0.6,2.1-1.8,2.2-3.2
                        c0.5-3-1.2-4.1-4-4.1h-5.8l-2.5,15.6H51.1z M49.9,33.6h0.4c1.3,0,3.4-0.2,3.1,1.7c-0.3,1.7-2.3,1.7-3.5,1.7h-0.5L49.9,33.6z
                        M68.9,37.3l0.6,2.7h4.3l-3.4-15.7H66l-8.5,15.7h4.3l1.5-2.7H68.9z M68.3,34.2h-3.4l2.5-5l0,0L68.3,34.2z M77.6,24.4h4.1
                        l5.9,9.6l0,0l1.5-9.6h4.1l-2.4,15.6h-4.1l-5.9-9.6l0,0l-1.5,9.6h-4.1L77.6,24.4z M105,24.4h5l-7.4,7.4l5.5,8.2h-5.3l-4.2-6.8
                        l0,0l-1.1,6.8h-4.1l2.5-15.7h4.1l-1,6.5l0,0L105,24.4z"/>
                    <path class="st1" d="M0,1.8h38.2V40H0V1.8z M1,39h36.2V2.9H1V39z M19,25.5L30.6,37l4.5-4.5L23.5,21l2.2-2.2v-4.5l1.6-1.6v3.7
                        l1.6,1.5l5.6-5.6l1.5,1.5c-0.1-2.6-1.1-5.1-3-6.9c-1.8-2-4.8-2.1-6.8-0.4c-0.1,0.1-0.1,0.1-0.2,0.2l-5.4,5.4l1.4,1.4l-3,3l-3-3
                        l1.4-1.4L12,6.7c-1.9-1.9-4.9-1.9-6.8,0C5.1,6.8,5.1,6.8,5,6.9c-1.8,1.8-2.9,4.3-2.9,6.9l1.5-1.5l5.6,5.6l1.6-1.6v-3.7l1.6,1.6
                        v4.5l2.2,2.3L3.2,32.4l4.5,4.5L19,25.5z"/>
                </g>
            </g>
        </g>
    </g>
</svg>
