
<svg version="1.0" id="Layer_1" xmlns="http://www.w3.org/2000/svg" xmlns:xlink="http://www.w3.org/1999/xlink" x="0px" y="0px"
	 viewBox="0 0 379.998 58.563" enable-background="new 0 0 379.998 58.563" xml:space="preserve">
<path fill="#21A038" d="M90.59,11.077c-10.616,0-14.367,5.656-14.367,10.906c0,7.616,6.577,9.174,12.463,10.559
	c4.097,0.981,7.615,1.846,7.615,4.73c0,1.5-0.866,3.982-6.809,3.982c-4.039-0.058-7.962-1.329-11.309-3.637l-2.596,5.887
	c3.116,2.423,8.539,3.98,13.848,3.98c8.77,0,14.482-4.27,14.482-10.848c-0.058-7.443-6.695-9-12.521-10.385
	c-4.097-0.981-7.615-1.789-7.615-4.674c0-3.808,4.673-4.213,6.75-4.213c2.25-0.115,4.443,0.347,6.463,1.328l5.654-4.154
	C99.014,12.347,94.86,11.134,90.59,11.077L90.59,11.077z M183.076,11.651v35.254h7.615v-9.982h7.559l6.752,9.982l8.135,0.057
	l-7.73-11.482c4.558-1.962,7.211-5.941,7.211-11.191c0-7.789-5.77-12.637-15.002-12.637L183.076,11.651L183.076,11.651z
	 M346.186,11.651v35.254h7.617V32.71h4.732l11.654,14.195h9.809L364.42,28.671l13.615-17.02h-8.711l-11.311,15.115h-4.211V11.651
	L346.186,11.651L346.186,11.651z M149.326,11.706V46.96h26.656v-5.887h-19.041v-8.998h16.271v-5.887h-16.271v-8.596h11.078
	l7.963-5.887L149.326,11.706L149.326,11.706z M277.926,11.708L262.75,46.962h7.732l3.059-7.096h16.154l2.885,7.096h8.022
	l-14.887-35.254H277.926L277.926,11.708z M305.446,11.708v35.254h7.328V23.884l17.482,23.078h7.213V11.708h-7.272v23.137
	l-17.539-23.137L305.446,11.708L305.446,11.708z M110.956,11.76v35.254h17.656c8.77,0,13.615-3.403,13.615-9.52
	c0.058-4.27-2.248-7.386-6.172-8.713h-0.002l-0.346-0.115l0.346-0.174c2.827-1.5,4.615-4.5,4.5-7.674
	c0-5.712-4.846-9.059-12.924-9.059L110.956,11.76L110.956,11.76z M228.706,11.766V47.02h17.656c8.77,0,13.617-3.403,13.617-9.52
	c0-4.154-2.25-7.329-6.174-8.656l-0.348-0.174l0.346-0.172c2.827-1.5,4.615-4.443,4.5-7.674c0-5.712-4.846-9.059-12.924-9.059
	L228.706,11.766L228.706,11.766z M118.566,17.589h8.078c5.135,0,6.174,2.366,6.174,4.328c0,2.827-2.135,4.326-6.174,4.326h-8.078
	V17.589z M244.396,17.593c5.077,0,6.174,2.366,6.174,4.328c0,2.827-2.135,4.328-6.174,4.328h-8.078v-8.598h8.078L244.396,17.593
	L244.396,17.593z M190.681,17.595h6.752c4.904,0,7.559,2.423,7.559,6.75c0,4.327-2.654,6.75-7.559,6.75h-6.752V17.595z
	 M281.73,19.786l5.539,14.137h-11.424L281.73,19.786L281.73,19.786z M118.56,32.071h9.463c4.327,0,6.52,1.5,6.52,4.5
	c0,3-2.134,4.5-6.52,4.5h-9.463V32.071z M236.31,32.075h9.463c4.327,0,6.52,1.5,6.52,4.5c0,3-2.134,4.502-6.52,4.502h-9.463V32.075z
	"/>
<path fill="#21A038" d="M52.448,11.422c1.385,1.789,2.539,3.75,3.52,5.827L29.31,36.924l-11.193-7.039v-8.424l11.136,6.981
	L52.448,11.422z"/>
<linearGradient id="SVGID_1_" gradientUnits="userSpaceOnUse" x1="-150.5123" y1="263.1039" x2="-151.4513" y2="267.5965" gradientTransform="matrix(2.8737 0 0 -4.7565 440.6053 1300.559)">
	<stop  offset="0.1444" style="stop-color:#F2E913"/>
	<stop  offset="0.3037" style="stop-color:#E7E518"/>
	<stop  offset="0.5823" style="stop-color:#CADB26"/>
	<stop  offset="0.891" style="stop-color:#A3CD39"/>
</linearGradient>
<path fill="url(#SVGID_1_)" d="M6.751,29.302c0-0.404,0-0.75,0.058-1.154l-6.751-0.346C0.058,28.263,0,28.783,0,29.244
	c0,8.078,3.289,15.405,8.597,20.714l4.789-4.789C9.289,41.13,6.751,35.534,6.751,29.302L6.751,29.302z"/>
<linearGradient id="SVGID_00000019646983655550739290000007330226892803601597_" gradientUnits="userSpaceOnUse" x1="-181.4496" y1="235.1445" x2="-177.4471" y2="236.0659" gradientTransform="matrix(4.7565 0 0 -2.8737 873.6497 683.8338)">
	<stop  offset="0.0592" style="stop-color:#0FA8E0"/>
	<stop  offset="0.5385" style="stop-color:#0099F9"/>
	<stop  offset="0.9234" style="stop-color:#0291EB"/>
</linearGradient>
<path fill="url(#SVGID_00000019646983655550739290000007330226892803601597_)" d="M29.253,6.802c0.404,0,0.75,0,1.154,0.058
	l0.346-6.751c-0.462,0-0.981-0.058-1.443-0.058c-8.078,0-15.405,3.289-20.714,8.597l4.789,4.789
	C17.424,9.34,23.079,6.802,29.253,6.802L29.253,6.802z"/>
<linearGradient id="SVGID_00000070082697545630286990000015351454172571324602_" gradientUnits="userSpaceOnUse" x1="-177.9277" y1="219.6137" x2="-173.4015" y2="220.2317" gradientTransform="matrix(4.7565 0 0 -2.8737 873.6497 683.8338)">
	<stop  offset="0.1226" style="stop-color:#A3CD39"/>
	<stop  offset="0.2846" style="stop-color:#86C339"/>
	<stop  offset="0.8693" style="stop-color:#21A038"/>
</linearGradient>
<path fill="url(#SVGID_00000070082697545630286990000015351454172571324602_)" d="M29.253,51.812c-0.404,0-0.75,0-1.154-0.058
	l-0.346,6.751c0.462,0,0.981,0.058,1.443,0.058c8.078,0,15.405-3.289,20.714-8.597l-4.789-4.789
	C41.081,49.331,35.485,51.812,29.253,51.812L29.253,51.812z"/>
<linearGradient id="SVGID_00000019662057706982656400000005255652357525580180_" gradientUnits="userSpaceOnUse" x1="-178.7479" y1="234.7743" x2="-174.9461" y2="234.0903" gradientTransform="matrix(4.8418 0 0 -2.8231 893.2688 667.2594)">
	<stop  offset="0.0566" style="stop-color:#0291EB"/>
	<stop  offset="0.79" style="stop-color:#0C8ACB"/>
</linearGradient>
<path fill="url(#SVGID_00000019662057706982656400000005255652357525580180_)" d="M41.947,10.732l5.712-4.212
	C42.639,2.481,36.235,0,29.253,0v6.751C33.984,6.808,38.369,8.251,41.947,10.732L41.947,10.732z"/>
<path fill="#21A038" d="M58.563,29.302c0-1.789-0.173-3.52-0.462-5.25l-6.289,4.674v0.577c0,6.635-2.885,12.578-7.443,16.675
	l4.558,5.02C54.812,45.689,58.563,37.9,58.563,29.302L58.563,29.302z"/>
<linearGradient id="SVGID_00000120531403505787841040000005290263999573282704_" gradientUnits="userSpaceOnUse" x1="-179.7499" y1="224.8087" x2="-175.3663" y2="223.7367" gradientTransform="matrix(4.5708 0 0 -2.9905 830.9387 722.0925)">
	<stop  offset="0.1324" style="stop-color:#F2E913"/>
	<stop  offset="0.2977" style="stop-color:#EBE716"/>
	<stop  offset="0.5306" style="stop-color:#D9E01F"/>
	<stop  offset="0.8023" style="stop-color:#BBD62D"/>
	<stop  offset="0.9829" style="stop-color:#A3CD39"/>
</linearGradient>
<path fill="url(#SVGID_00000120531403505787841040000005290263999573282704_)" d="M29.253,51.812
	c-6.635,0-12.578-2.885-16.675-7.443l-5.02,4.558c5.366,5.943,13.097,9.636,21.695,9.636L29.253,51.812z"/>
<linearGradient id="SVGID_00000046341147296555188140000014733505878070152083_" gradientUnits="userSpaceOnUse" x1="-154.5212" y1="264.6156" x2="-153.3699" y2="269.193" gradientTransform="matrix(2.9905 0 0 -4.5708 467.4694 1239.7316)">
	<stop  offset="0.0698" style="stop-color:#A3CD39"/>
	<stop  offset="0.2599" style="stop-color:#81C55F"/>
	<stop  offset="0.9216" style="stop-color:#0FA8E0"/>
</linearGradient>
<path fill="url(#SVGID_00000046341147296555188140000014733505878070152083_)" d="M14.194,12.632l-4.558-5.02
	C3.693,12.978,0,20.709,0,29.306h6.751C6.751,22.729,9.636,16.728,14.194,12.632L14.194,12.632z"/>
</svg>
