
<svg viewBox="0 0 103 17" version="1.1" xmlns="http://www.w3.org/2000/svg" xmlns:xlink="http://www.w3.org/1999/xlink"><title>СберБанк</title><defs><linearGradient x1="59.0074847%" y1="96.2929688%" x2="38.7857471%" y2="-0.146354167%" id="linearGradient-1"><stop stop-color="#F2E913" offset="14.44%"/><stop stop-color="#E7E518" offset="30.37%"/><stop stop-color="#CADB26" offset="58.23%"/><stop stop-color="#A3CD39" offset="89.1%"/></linearGradient><linearGradient x1="8.68515625%" y1="58.3771408%" x2="94.6151042%" y2="38.6562394%" id="linearGradient-2"><stop stop-color="#0FA8E0" offset="5.92%"/><stop stop-color="#0099F9" offset="53.85%"/><stop stop-color="#0291EB" offset="92.34%"/></linearGradient><linearGradient x1="-1.7890625%" y1="56.9810291%" x2="95.3828125%" y2="43.7548231%" id="linearGradient-3"><stop stop-color="#A3CD39" offset="12.26%"/><stop stop-color="#86C339" offset="28.46%"/><stop stop-color="#21A038" offset="86.93%"/></linearGradient><linearGradient x1="-7.53573668%" y1="40.2466885%" x2="92.4727273%" y2="58.1809607%" id="linearGradient-4"><stop stop-color="#0291EB" offset="5.66%"/><stop stop-color="#0C8ACB" offset="79%"/></linearGradient><linearGradient x1="7.91196809%" y1="39.8389621%" x2="100.269415%" y2="62.3435198%" id="linearGradient-5"><stop stop-color="#F2E913" offset="13.24%"/><stop stop-color="#EBE716" offset="29.77%"/><stop stop-color="#D9E01F" offset="53.06%"/><stop stop-color="#BBD62D" offset="80.23%"/><stop stop-color="#A3CD39" offset="98.29%"/></linearGradient><linearGradient x1="36.1894427%" y1="103.758511%" x2="60.5224873%" y2="7.31835106%" id="linearGradient-6"><stop stop-color="#A3CD39" offset="6.98%"/><stop stop-color="#81C55F" offset="25.99%"/><stop stop-color="#0FA8E0" offset="92.16%"/></linearGradient></defs><g id="Page-1" stroke="none" stroke-width="1" fill="none" fill-rule="evenodd"><g id="SB_RUS_RGB" fill-rule="nonzero"><polygon id="Path" fill="#21A038" points="46.0543807 4.86213592 48.2015106 3.2776699 41.0132931 3.2776699 41.0132931 12.768932 48.2015106 12.768932 48.2015106 11.184466 43.0670695 11.184466 43.0670695 8.76116505 47.4546828 8.76116505 47.4546828 7.17669903 43.0670695 7.17669903 43.0670695 4.86213592"/><path d="M35.5832326,6.97475728 L33.0938066,6.97475728 L33.0938066,4.86213592 L37.0768882,4.86213592 L39.2240181,3.2776699 L31.0400302,3.2776699 L31.0400302,12.768932 L35.3187311,12.768932 C37.7148036,12.768932 39.0995468,11.6815534 39.0995468,9.78640777 C39.0995468,7.96893204 37.8548338,6.97475728 35.5832326,6.97475728 Z M35.2409366,11.184466 L33.0938066,11.184466 L33.0938066,8.5592233 L35.2409366,8.5592233 C36.5478852,8.5592233 37.1546828,8.99417476 37.1546828,9.87961165 C37.1546828,10.7650485 36.5012085,11.184466 35.2409366,11.184466 Z" id="Shape" fill="#21A038"/><path d="M54.0205438,3.2776699 L50.1152568,3.2776699 L50.1152568,12.768932 L52.1690332,12.768932 L52.1690332,10.0815534 L54.0361027,10.0815534 C56.5255287,10.0815534 58.0814199,8.77669903 58.0814199,6.67961165 C58.0814199,4.58252427 56.5255287,3.2776699 54.0205438,3.2776699 Z M53.9738671,8.49708738 L52.1534743,8.49708738 L52.1534743,4.86213592 L53.9738671,4.86213592 C55.2963746,4.86213592 56.0120846,5.51456311 56.0120846,6.67961165 C56.0120846,7.84466019 55.2963746,8.49708738 53.9738671,8.49708738 Z" id="Shape" fill="#21A038"/><path d="M27.523716,10.7184466 C26.9791541,11.0135922 26.3723565,11.168932 25.75,11.168932 C23.8984894,11.168932 22.560423,9.84854369 22.560423,8.03106796 C22.560423,6.21359223 23.8984894,4.89320388 25.75,4.89320388 C26.4190332,4.8776699 27.0725076,5.09514563 27.6170695,5.48349515 L29.0951662,4.3961165 L29.0951662,4.3961165 L29.0018127,4.30291262 C28.1460725,3.54174757 26.994713,3.15339806 25.6877644,3.15339806 C24.2719033,3.15339806 22.9805136,3.63495146 22.0469789,4.50485437 C21.1134441,5.40582524 20.5844411,6.66407767 20.6155589,7.96893204 C20.6,9.28932039 21.1134441,10.5631068 22.0469789,11.4951456 C23.0271903,12.4116505 24.334139,12.9242718 25.6722054,12.8932039 C27.1503021,12.8932039 28.4416918,12.3805825 29.3129909,11.4485437 L27.9904834,10.4699029 L27.523716,10.7184466 Z" id="Path" fill="#21A038"/><path d="M82.7734139,3.29320388 L82.7734139,12.784466 L84.8271903,12.784466 L84.8271903,8.90097087 L89.1992447,8.90097087 L89.1992447,12.784466 L91.2530211,12.784466 L91.2530211,3.29320388 L89.1992447,3.29320388 L89.1992447,7.19223301 L84.8271903,7.19223301 L84.8271903,3.29320388 L82.7734139,3.29320388 Z M79.2415408,12.784466 L81.4042296,12.784466 L77.3900302,3.29320388 L75.305136,3.29320388 L71.213142,12.784466 L73.2824773,12.784466 L74.1070997,10.8737864 L78.4635952,10.8737864 L79.2415408,12.784466 Z M74.7294562,9.28932039 L76.3164653,5.48349515 L77.8101208,9.28932039 L74.7294562,9.28932039 Z M95.8584592,8.94757282 L97.13429,8.94757282 L100.27719,12.768932 L102.922205,12.768932 L98.7212991,7.86019417 L102.393202,3.2776699 L100.043807,3.2776699 L96.9942598,7.34757282 L95.8584592,7.34757282 L95.8584592,3.2776699 L93.8046828,3.2776699 L93.8046828,12.768932 L95.8584592,12.768932 L95.8584592,8.94757282 Z M64.4294562,6.99029126 L64.4294562,4.8776699 L69.797281,4.8776699 L69.797281,3.29320388 L62.3756798,3.29320388 L62.3756798,12.784466 L66.6543807,12.784466 C69.0504532,12.784466 70.4351964,11.6970874 70.4351964,9.80194175 C70.4351964,7.98446602 69.1904834,6.99029126 66.9188822,6.99029126 L64.4294562,6.99029126 L64.4294562,6.99029126 Z M64.4294562,11.2 L64.4294562,8.57475728 L66.5765861,8.57475728 C67.8835347,8.57475728 68.4903323,9.00970874 68.4903323,9.89514563 C68.4903323,10.7805825 67.8524169,11.215534 66.5765861,11.215534 L64.4294562,11.215534 L64.4294562,11.2 Z" id="Shape" fill="#21A038"/><g id="Group"><path d="M14.1897281,3.21553398 C14.563142,3.69708738 14.8743202,4.22524272 15.1388218,4.78446602 L7.95060423,10.0815534 L4.93217523,8.18640777 L4.93217523,5.9184466 L7.93504532,7.79805825 L14.1897281,3.21553398 Z" id="Path" fill="#21A038"/><g transform="translate(0.000000, 0.155340)" id="Path"><path d="M1.86706949,7.87572816 C1.86706949,7.76699029 1.86706949,7.67378641 1.8826284,7.56504854 L0.0622356495,7.47184466 C0.0622356495,7.5961165 0.0466767372,7.73592233 0.0466767372,7.86019417 C0.0466767372,10.0349515 0.933534743,12.007767 2.36495468,13.4368932 L3.65634441,12.1475728 C2.55166163,11.0601942 1.86706949,9.55339806 1.86706949,7.87572816 Z" fill="url(#linearGradient-1)"/><path d="M7.93504532,1.81747573 C8.0439577,1.81747573 8.13731118,1.81747573 8.24622356,1.83300971 L8.33957704,0.0155339806 C8.21510574,0.0155339806 8.07507553,-2.20751141e-15 7.95060423,-2.20751141e-15 C5.7723565,-2.20751141e-15 3.79637462,0.885436893 2.36495468,2.31456311 L3.65634441,3.6038835 C4.74546828,2.50097087 6.27024169,1.81747573 7.93504532,1.81747573 Z" fill="url(#linearGradient-2)"/><path d="M7.93504532,13.9339806 C7.82613293,13.9339806 7.73277946,13.9339806 7.62386707,13.9184466 L7.5305136,15.7359223 C7.65498489,15.7359223 7.79501511,15.7514563 7.9194864,15.7514563 C10.0977341,15.7514563 12.073716,14.8660194 13.505136,13.4368932 L12.2137462,12.1475728 C11.1246224,13.2660194 9.61540785,13.9339806 7.93504532,13.9339806 Z" fill="url(#linearGradient-3)"/></g><g id="Path"><path d="M11.358006,3.02912621 L12.8983384,1.89514563 C11.544713,0.80776699 9.81767372,0.139805825 7.93504532,0.139805825 L7.93504532,0.139805825 L7.93504532,1.95728155 C9.21087613,1.97281553 10.3933535,2.36116505 11.358006,3.02912621 Z" fill="url(#linearGradient-4)"/><path d="M15.8389728,8.03106796 C15.8389728,7.54951456 15.7922961,7.08349515 15.7145015,6.61747573 L14.0185801,7.87572816 C14.0185801,7.9223301 14.0185801,7.98446602 14.0185801,8.03106796 C14.0185801,9.81747573 13.2406344,11.4174757 12.0114804,12.5203883 L13.2406344,13.8718447 C14.8276435,12.4427184 15.8389728,10.3456311 15.8389728,8.03106796 Z" fill="#21A038"/><path d="M7.93504532,14.0893204 C6.14577039,14.0893204 4.54320242,13.3126214 3.43851964,12.0854369 L2.08489426,13.3126214 C3.53187311,14.9126214 5.61676737,15.9067961 7.93504532,15.9067961 L7.93504532,14.0893204 L7.93504532,14.0893204 Z" fill="url(#linearGradient-5)"/><path d="M3.87416918,3.54174757 L2.64501511,2.19029126 C1.04244713,3.63495146 0.0466767372,5.71650485 0.0466767372,8.03106796 L1.86706949,8.03106796 C1.86706949,6.26019417 2.64501511,4.64466019 3.87416918,3.54174757 Z" fill="url(#linearGradient-6)"/></g></g></g></g></svg>