
<svg width="60" height="52" viewBox="0 0 60 52" fill="none" xmlns="http://www.w3.org/2000/svg">
<path d="M58.7109 48.8517H56.9531V14.8673C56.9531 14.2201 56.4284 13.6954 55.7812 13.6954H51.0938V3.14856H53.4375C54.0846 3.14856 54.6094 2.62391 54.6094 1.97668C54.6094 1.32945 54.0846 0.804805 53.4375 0.804805C46.0028 0.80586 46.3802 0.800235 46.2656 0.814063C46.1074 0.833165 45.9574 0.883438 45.8195 0.96336C45.7371 1.01117 7.97684 23.897 7.40695 24.2423H4.21875C3.57152 24.2423 3.04688 24.767 3.04688 25.4142C3.04688 26.0613 3.57152 26.5861 4.21875 26.5861H6.5625V42.9923H4.21875C3.57152 42.9923 3.04688 43.5171 3.04688 44.1642V48.8517H1.28906C0.641836 48.8517 0.117188 49.3764 0.117188 50.0236C0.117188 50.6707 0.641836 51.1954 1.28906 51.1954H58.7109C59.358 51.1954 59.8828 50.6707 59.8828 50.0236C59.8828 49.3764 59.358 48.8517 58.7109 48.8517ZM48.75 13.6954H45.2344C44.5873 13.6954 44.0625 14.2201 44.0625 14.8673V19.5548C43.2428 19.5548 42.5385 19.5548 41.7188 19.5548V6.18793L46.7337 3.14856H48.75V13.6954ZM37.0312 19.5548C36.3841 19.5548 35.8594 20.0795 35.8594 20.7267V25.4142C35.1622 25.4142 34.2273 25.4142 33.5156 25.4142V11.1595L39.375 7.60836V19.5548H37.0312ZM28.8281 25.4142C28.1809 25.4142 27.6562 25.9389 27.6562 26.5861V31.2736H25.3125V16.1312L31.1719 12.58V25.4143H28.8281V25.4142ZM20.625 31.2736C19.9778 31.2736 19.4531 31.7983 19.4531 32.4454V37.1329H17.1094V21.1027L22.9688 17.5516V31.2736H20.625ZM8.90625 26.0743L14.7656 22.5232V37.1329H12.4219C11.7746 37.1329 11.25 37.6577 11.25 38.3048V42.9923H8.90625V26.0743ZM5.39062 45.3361H15.3516C15.9988 45.3361 16.5234 44.8113 16.5234 44.1642C16.5234 43.5171 15.9988 42.9923 15.3516 42.9923H13.5938V39.4767H23.5547C24.2019 39.4767 24.7266 38.9519 24.7266 38.3048C24.7266 37.6577 24.2019 37.1329 23.5547 37.1329H21.7969V33.6173H31.7578C32.4049 33.6173 32.9297 33.0925 32.9297 32.4454C32.9297 31.7983 32.4049 31.2736 31.7578 31.2736H30V27.7579H39.9609C40.608 27.7579 41.1328 27.2332 41.1328 26.5861C41.1328 25.9389 40.608 25.4142 39.9609 25.4142H38.2031V21.8986H48.1641C48.8112 21.8986 49.3359 21.3739 49.3359 20.7267C49.3359 20.0795 48.8112 19.5548 48.1641 19.5548H46.4062V16.0392H54.6094V48.8517H5.39062V45.3361Z" fill="black"/>
</svg>
