
<svg xmlns="http://www.w3.org/2000/svg" viewBox="0 0 174 60.56"><defs><style>.a{fill:#009de0;}.b{fill:#243571;}</style></defs><title>VTB Bank logo</title><path class="a" d="M468.36,505.87H427.74L425,513.92h40.62Zm4.39-12.08H432.32l-2.93,8.05H470Zm4.57-12.08H436.71l-2.93,8.05H474.4Z" transform="translate(-425 -481.72)"/><path class="b" d="M496.54,542.1l-15.19-48.3H492l5.85,21c1.65,6.22,2.56,9.51,3.66,14.82,1.1-4.94,1.65-7.32,3.66-14.45L511,493.79h10.25l-15.19,48.3Zm40.8,0V501.85H523.44v-8.05h38.79l-2.74,8.05H547V542.1Zm37.51-28.91h5.49a14.93,14.93,0,0,0,3.29-.18,5.47,5.47,0,0,0,3.66-5.49c0-3.29-1.46-4.76-3.66-5.31a16,16,0,0,0-3.66-.37h-5.12Zm.18,8.23V534h6.77c2,0,3.84-.18,5.12-1.46a6.76,6.76,0,0,0,2-4.94,6.41,6.41,0,0,0-1.28-4.21c-1.46-1.83-3.11-2.2-6.22-2.2H575Zm15.37-4.94h0a29.83,29.83,0,0,1,4.57,2.74c2.93,2.38,4,5.49,4,9.51,0,6.59-3.48,11.34-9.33,12.81a22.92,22.92,0,0,1-7,.73H565.15V493.79H580.7a27.33,27.33,0,0,1,7.32.73c5.67,1.46,9.33,5.31,9.33,11.53a10.32,10.32,0,0,1-3.11,7.87A19.69,19.69,0,0,1,590.4,516.48Z" transform="translate(-425 -481.72)"/></svg>