<svg width="60" height="56" viewBox="0 0 60 56" fill="none" xmlns="http://www.w3.org/2000/svg">
    <path d="M58.75 0.499969H1.25004C0.560039 0.499969 0 1.06001 0 1.75001V34.25C0 34.94 0.560039 35.5 1.25004 35.5H21.2501C21.9401 35.5 22.5001 34.94 22.5001 34.25V29.2499C22.5001 28.5599 21.9401 27.9999 21.2501 27.9999C20.5601 27.9999 20 28.5599 20 29.2499V32.9999H2.49996V19.25V3.00005H19.9999V3.62501C19.9999 4.31501 20.56 4.87505 21.25 4.87505C21.94 4.87505 22.5 4.31501 22.5 3.62501V3.00005H57.5V18H33.75C33.06 18 32.5 18.5601 32.5 19.2501V24.25C32.5 24.94 33.06 25.5 33.75 25.5C34.44 25.5 35 24.94 35 24.25V20.5H57.5V40.5H41.25C40.56 40.5 40 41.0601 40 41.7501V53.0001H2.49996V49.2501C2.49996 48.5601 1.93992 48 1.24992 48C0.559922 48 0 48.56 0 49.25V54.25C0 54.94 0.560039 55.5 1.25004 55.5H41.25C41.94 55.5 42.5 54.94 42.5 54.25V43H58.7501C59.4401 43 60.0001 42.44 60.0001 41.75V1.75001C60 1.06001 59.44 0.499969 58.75 0.499969Z" fill="black"/>
    <path d="M21.2499 13.5C21.9399 13.5 22.5 12.9426 22.5 12.25V9.37504C22.5 8.68504 21.9399 8.125 21.2499 8.125C20.5599 8.125 19.9999 8.68246 19.9999 9.37504V12.25C20 12.9425 20.5599 13.5 21.2499 13.5Z" fill="black"/>
    <path d="M18.75 18C18.06 18 17.5 18.5601 17.5 19.2501C17.5 19.9401 18.06 20.5 18.75 20.5H21.25C21.94 20.5 22.5 19.94 22.5 19.25V17.9999C22.5 17.3099 21.94 16.7499 21.25 16.7499C20.56 16.7499 19.9999 17.3099 19.9999 17.9999H18.75V18Z" fill="black"/>
    <path d="M11.25 18.0001C10.56 18.0001 9.99997 18.5601 9.99997 19.2501C9.99997 19.9401 10.56 20.5 11.25 20.5H13.75C14.44 20.5 15 19.94 15 19.25C15 18.56 14.44 17.9999 13.75 17.9999H11.25V18.0001Z" fill="black"/>
    <path d="M3.75001 20.5H6.24997C6.93997 20.5 7.50001 19.94 7.50001 19.25C7.50001 18.56 6.93997 17.9999 6.24997 17.9999H3.75001C3.06001 17.9999 2.49997 18.56 2.49997 19.25C2.49997 19.94 3.06001 20.5 3.75001 20.5Z" fill="black"/>
</svg>
