<svg width="34" height="35" viewBox="0 0 34 35" fill="none" xmlns="http://www.w3.org/2000/svg">
<path d="M33.4333 33.1196H30.0333V14.4196C30.0333 14.1067 29.7796 13.8529 29.4667 13.8529H21.5333V0.819596C21.5333 0.506655 21.2796 0.25293 20.9667 0.25293H6.23333C5.92039 0.25293 5.66667 0.506655 5.66667 0.819596V33.1196H0.566667C0.253725 33.1196 0 33.3733 0 33.6863C0 33.9992 0.253725 34.2529 0.566667 34.2529H33.4333C33.7463 34.2529 34 33.9992 34 33.6863C34 33.3733 33.7463 33.1196 33.4333 33.1196ZM11.9 33.1196H9.63333V28.0196C9.63333 27.7067 9.88706 27.4529 10.2 27.4529H11.3333C11.6463 27.4529 11.9 27.7067 11.9 28.0196V33.1196ZM14.1667 14.4196V33.1196H13.0333V28.0196C13.0333 27.0807 12.2722 26.3196 11.3333 26.3196H10.2C9.2611 26.3196 8.5 27.0807 8.5 28.0196V33.1196H6.8V1.38626H20.4V13.8529H14.7333C14.4204 13.8529 14.1667 14.1067 14.1667 14.4196ZM28.9 33.1196H15.3V14.9863H28.9V33.1196Z" fill="black"/>
<path d="M18.1332 8.18628H14.7332C14.4202 8.18628 14.1665 8.44 14.1665 8.75295V12.1529C14.1665 12.4659 14.4202 12.7196 14.7332 12.7196H18.1332C18.4461 12.7196 18.6998 12.4659 18.6998 12.1529V8.75295C18.6998 8.44 18.4461 8.18628 18.1332 8.18628ZM17.5665 11.5863H15.2998V9.31961H17.5665V11.5863Z" fill="black"/>
<path d="M18.1332 2.51953H14.7332C14.4202 2.51953 14.1665 2.77326 14.1665 3.0862V6.4862C14.1665 6.79914 14.4202 7.05286 14.7332 7.05286H18.1332C18.4461 7.05286 18.6998 6.79914 18.6998 6.4862V3.0862C18.6998 2.77326 18.4461 2.51953 18.1332 2.51953ZM17.5665 5.91953H15.2998V3.65286H17.5665V5.91953Z" fill="black"/>
<path d="M12.4667 8.18628H9.06667C8.75372 8.18628 8.5 8.44 8.5 8.75295V12.1529C8.5 12.4659 8.75372 12.7196 9.06667 12.7196H12.4667C12.7796 12.7196 13.0333 12.4659 13.0333 12.1529V8.75295C13.0333 8.44 12.7796 8.18628 12.4667 8.18628ZM11.9 11.5863H9.63333V9.31961H11.9V11.5863Z" fill="black"/>
<path d="M12.4667 2.51953H9.06667C8.75372 2.51953 8.5 2.77326 8.5 3.0862V6.4862C8.5 6.79914 8.75372 7.05286 9.06667 7.05286H12.4667C12.7796 7.05286 13.0333 6.79914 13.0333 6.4862V3.0862C13.0333 2.77326 12.7796 2.51953 12.4667 2.51953ZM11.9 5.91953H9.63333V3.65286H11.9V5.91953Z" fill="black"/>
<path d="M12.4667 13.853H9.06667C8.75372 13.853 8.5 14.1068 8.5 14.4197V17.8197C8.5 18.1326 8.75372 18.3864 9.06667 18.3864H12.4667C12.7796 18.3864 13.0333 18.1326 13.0333 17.8197V14.4197C13.0333 14.1068 12.7796 13.853 12.4667 13.853ZM11.9 17.253H9.63333V14.9864H11.9V17.253Z" fill="black"/>
<path d="M12.4667 19.5195H9.06667C8.75372 19.5195 8.5 19.7733 8.5 20.0862V23.4862C8.5 23.7991 8.75372 24.0529 9.06667 24.0529H12.4667C12.7796 24.0529 13.0333 23.7991 13.0333 23.4862V20.0862C13.0333 19.7733 12.7796 19.5195 12.4667 19.5195ZM11.9 22.9195H9.63333V20.6529H11.9V22.9195Z" fill="black"/>
<path d="M23.2332 26.3197H26.6332C26.9461 26.3197 27.1998 26.066 27.1998 25.753V22.353C27.1998 22.0401 26.9461 21.7864 26.6332 21.7864H23.2332C22.9202 21.7864 22.6665 22.0401 22.6665 22.353V25.753C22.6665 26.066 22.9202 26.3197 23.2332 26.3197ZM23.7998 22.9197H26.0665V25.1864H23.7998V22.9197Z" fill="black"/>
<path d="M23.2332 20.653H26.6332C26.9461 20.653 27.1998 20.3992 27.1998 20.0863V16.6863C27.1998 16.3734 26.9461 16.1196 26.6332 16.1196H23.2332C22.9202 16.1196 22.6665 16.3734 22.6665 16.6863V20.0863C22.6665 20.3992 22.9202 20.653 23.2332 20.653ZM23.7998 17.253H26.0665V19.5196H23.7998V17.253Z" fill="black"/>
<path d="M23.2332 31.9862H26.6332C26.9461 31.9862 27.1998 31.7325 27.1998 31.4195V28.0195C27.1998 27.7066 26.9461 27.4529 26.6332 27.4529H23.2332C22.9202 27.4529 22.6665 27.7066 22.6665 28.0195V31.4195C22.6665 31.7325 22.9202 31.9862 23.2332 31.9862ZM23.7998 28.5862H26.0665V30.8529H23.7998V28.5862Z" fill="black"/>
<path d="M17.5667 26.3197H20.9667C21.2796 26.3197 21.5333 26.066 21.5333 25.753V22.353C21.5333 22.0401 21.2796 21.7864 20.9667 21.7864H17.5667C17.2537 21.7864 17 22.0401 17 22.353V25.753C17 26.066 17.2537 26.3197 17.5667 26.3197ZM18.1333 22.9197H20.4V25.1864H18.1333V22.9197Z" fill="black"/>
<path d="M17.5667 20.653H20.9667C21.2796 20.653 21.5333 20.3992 21.5333 20.0863V16.6863C21.5333 16.3734 21.2796 16.1196 20.9667 16.1196H17.5667C17.2537 16.1196 17 16.3734 17 16.6863V20.0863C17 20.3992 17.2537 20.653 17.5667 20.653ZM18.1333 17.253H20.4V19.5196H18.1333V17.253Z" fill="black"/>
<path d="M17.5667 31.9862H20.9667C21.2796 31.9862 21.5333 31.7325 21.5333 31.4195V28.0195C21.5333 27.7066 21.2796 27.4529 20.9667 27.4529H17.5667C17.2537 27.4529 17 27.7066 17 28.0195V31.4195C17 31.7325 17.2537 31.9862 17.5667 31.9862ZM18.1333 28.5862H20.4V30.8529H18.1333V28.5862Z" fill="black"/>
</svg>
