<svg width="60" height="59" viewBox="0 0 60 59" fill="none" xmlns="http://www.w3.org/2000/svg">
    <path d="M30.2374 40.0242C30.5434 40.0242 30.8369 39.9026 31.0533 39.6862C31.2697 39.4698 31.3912 39.1764 31.3912 38.8703V33.3648C31.3912 33.0588 31.2697 32.7653 31.0533 32.549C30.8369 32.3326 30.5434 32.211 30.2374 32.211C29.9314 32.211 29.6379 32.3326 29.4215 32.549C29.2051 32.7653 29.0835 33.0588 29.0835 33.3648V38.8703C29.0835 39.1764 29.2051 39.4698 29.4215 39.6862C29.6379 39.9026 29.9314 40.0242 30.2374 40.0242V40.0242Z" fill="black"/>
    <path d="M30.2374 15.4835C30.5434 15.4835 30.8369 15.3619 31.0533 15.1455C31.2697 14.9292 31.3912 14.6357 31.3912 14.3297V8.85053C31.3912 8.54451 31.2697 8.25103 31.0533 8.03464C30.8369 7.81825 30.5434 7.69669 30.2374 7.69669C29.9314 7.69669 29.6379 7.81825 29.4215 8.03464C29.2051 8.25103 29.0835 8.54451 29.0835 8.85053V14.356C29.0904 14.6575 29.215 14.9442 29.4307 15.1549C29.6463 15.3656 29.9359 15.4836 30.2374 15.4835V15.4835Z" fill="black"/>
    <path d="M30.2374 27.767C30.5434 27.767 30.8369 27.6455 31.0533 27.4291C31.2697 27.2127 31.3912 26.9192 31.3912 26.6132V21.1077C31.3912 20.8017 31.2697 20.5082 31.0533 20.2918C30.8369 20.0754 30.5434 19.9539 30.2374 19.9539C29.9314 19.9539 29.6379 20.0754 29.4215 20.2918C29.2051 20.5082 29.0835 20.8017 29.0835 21.1077V26.6132C29.0835 26.9192 29.2051 27.2127 29.4215 27.4291C29.6379 27.6455 29.9314 27.767 30.2374 27.767V27.767Z" fill="black"/>
    <path d="M38.4198 15.4835C38.719 15.4802 39.0052 15.3607 39.218 15.1503C39.4308 14.94 39.5536 14.6552 39.5604 14.356V8.85053C39.5604 8.54451 39.4389 8.25103 39.2225 8.03464C39.0061 7.81825 38.7126 7.69669 38.4066 7.69669C38.1006 7.69669 37.8071 7.81825 37.5907 8.03464C37.3743 8.25103 37.2527 8.54451 37.2527 8.85053V14.356C37.2597 14.6597 37.3861 14.9485 37.6046 15.1596C37.8231 15.3707 38.116 15.4871 38.4198 15.4835V15.4835Z" fill="black"/>
    <path d="M38.4198 27.767C38.7235 27.7636 39.0136 27.6405 39.2272 27.4245C39.4407 27.2085 39.5605 26.9169 39.5604 26.6132V21.1077C39.5604 20.8017 39.4389 20.5082 39.2225 20.2918C39.0061 20.0754 38.7126 19.9539 38.4066 19.9539C38.1006 19.9539 37.8071 20.0754 37.5907 20.2918C37.3743 20.5082 37.2527 20.8017 37.2527 21.1077V26.6132C37.2527 26.7658 37.283 26.917 37.3418 27.0578C37.4006 27.1987 37.4868 27.3265 37.5954 27.4338C37.7039 27.5411 37.8327 27.6258 37.9742 27.683C38.1157 27.7402 38.2671 27.7688 38.4198 27.767V27.767Z" fill="black"/>
    <path d="M38.4198 40.0242C38.7235 40.0207 39.0136 39.8976 39.2272 39.6816C39.4407 39.4656 39.5605 39.1741 39.5604 38.8703V33.3648C39.5604 33.0588 39.4389 32.7653 39.2225 32.549C39.0061 32.3326 38.7126 32.211 38.4066 32.211C38.1006 32.211 37.8071 32.3326 37.5907 32.549C37.3743 32.7653 37.2527 33.0588 37.2527 33.3648V38.8703C37.2527 39.023 37.283 39.1741 37.3418 39.315C37.4006 39.4558 37.4868 39.5836 37.5954 39.6909C37.7039 39.7982 37.8327 39.883 37.9742 39.9402C38.1157 39.9974 38.2671 40.0259 38.4198 40.0242V40.0242Z" fill="black"/>
    <path d="M51.9429 44.4088H52.9187C53.2247 44.4088 53.5182 44.2872 53.7346 44.0708C53.951 43.8545 54.0726 43.561 54.0726 43.255C54.0726 42.9489 53.951 42.6554 53.7346 42.4391C53.5182 42.2227 53.2247 42.1011 52.9187 42.1011H51.9429C51.6369 42.1011 51.3434 42.2227 51.127 42.4391C50.9106 42.6554 50.789 42.9489 50.789 43.255C50.789 43.561 50.9106 43.8545 51.127 44.0708C51.3434 44.2872 51.6369 44.4088 51.9429 44.4088V44.4088Z" fill="black"/>
    <path d="M51.9429 37.8022H52.9187C53.2247 37.8022 53.5182 37.6806 53.7346 37.4642C53.951 37.2479 54.0726 36.9544 54.0726 36.6484C54.0726 36.3423 53.951 36.0489 53.7346 35.8325C53.5182 35.6161 53.2247 35.4945 52.9187 35.4945H51.9429C51.6369 35.4945 51.3434 35.6161 51.127 35.8325C50.9106 36.0489 50.789 36.3423 50.789 36.6484C50.789 36.9544 50.9106 37.2479 51.127 37.4642C51.3434 37.6806 51.6369 37.8022 51.9429 37.8022V37.8022Z" fill="black"/>
    <path d="M51.9429 50.956H52.9187C53.2247 50.956 53.5182 50.8345 53.7346 50.6181C53.951 50.4017 54.0726 50.1082 54.0726 49.8022C54.0726 49.4962 53.951 49.2027 53.7346 48.9863C53.5182 48.7699 53.2247 48.6483 52.9187 48.6483H51.9429C51.6369 48.6483 51.3434 48.7699 51.127 48.9863C50.9106 49.2027 50.789 49.4962 50.789 49.8022C50.789 50.1082 50.9106 50.4017 51.127 50.6181C51.3434 50.8345 51.6369 50.956 51.9429 50.956V50.956Z" fill="black"/>
    <path d="M16.3385 31.2549H17.3077C17.6137 31.2549 17.9072 31.1334 18.1236 30.917C18.34 30.7006 18.4616 30.4071 18.4616 30.1011C18.4616 29.7951 18.34 29.5016 18.1236 29.2852C17.9072 29.0688 17.6137 28.9472 17.3077 28.9472H16.3385C16.0325 28.9472 15.739 29.0688 15.5226 29.2852C15.3062 29.5016 15.1846 29.7951 15.1846 30.1011C15.1846 30.4071 15.3062 30.7006 15.5226 30.917C15.739 31.1334 16.0325 31.2549 16.3385 31.2549V31.2549Z" fill="black"/>
    <path d="M16.3385 24.6484H17.3077C17.6137 24.6484 17.9072 24.5268 18.1236 24.3104C18.34 24.094 18.4616 23.8005 18.4616 23.4945C18.4616 23.1885 18.34 22.895 18.1236 22.6786C17.9072 22.4622 17.6137 22.3407 17.3077 22.3407H16.3385C16.0325 22.3407 15.739 22.4622 15.5226 22.6786C15.3062 22.895 15.1846 23.1885 15.1846 23.4945C15.1846 23.8005 15.3062 24.094 15.5226 24.3104C15.739 24.5268 16.0325 24.6484 16.3385 24.6484V24.6484Z" fill="black"/>
    <path d="M16.3385 37.8022H17.3077C17.6137 37.8022 17.9072 37.6806 18.1236 37.4642C18.34 37.2479 18.4616 36.9544 18.4616 36.6484C18.4616 36.3423 18.34 36.0489 18.1236 35.8325C17.9072 35.6161 17.6137 35.4945 17.3077 35.4945H16.3385C16.0325 35.4945 15.739 35.6161 15.5226 35.8325C15.3062 36.0489 15.1846 36.3423 15.1846 36.6484C15.1846 36.9544 15.3062 37.2479 15.5226 37.4642C15.739 37.6806 16.0325 37.8022 16.3385 37.8022V37.8022Z" fill="black"/>
    <path d="M58.378 26.0725H47.5912V1.16923C47.5912 0.863208 47.4696 0.569723 47.2532 0.353335C47.0369 0.136947 46.7434 0.0153809 46.4374 0.0153809H22.2198C21.9195 0.0239635 21.6344 0.149308 21.4251 0.364772C21.2158 0.580237 21.0988 0.868835 21.0989 1.16923V15.5758H11.4264C11.1203 15.5758 10.8269 15.6974 10.6105 15.9138C10.3941 16.1302 10.2725 16.4236 10.2725 16.7297V31.0769C10.2725 31.3829 10.3941 31.6764 10.6105 31.8928C10.8269 32.1092 11.1203 32.2308 11.4264 32.2308C11.7324 32.2308 12.0259 32.1092 12.2423 31.8928C12.4586 31.6764 12.5802 31.3829 12.5802 31.0769V17.8901H21.0989V56.4945H12.5275C12.2214 56.4945 11.928 56.6161 11.7116 56.8325C11.4952 57.0488 11.3736 57.3423 11.3736 57.6483C11.3736 57.9544 11.4952 58.2479 11.7116 58.4642C11.928 58.6806 12.2214 58.8022 12.5275 58.8022H54.4352C55.7829 58.8005 57.0753 58.2657 58.0302 57.3145C58.9851 56.3633 59.5249 55.073 59.5319 53.7253V27.2264C59.5319 26.9204 59.4103 26.6269 59.1939 26.4105C58.9775 26.1941 58.684 26.0725 58.378 26.0725V26.0725ZM31.3912 56.4945V47.3099H37.2659V56.4945H31.3912ZM45.2835 56.4945H39.5604V46.156C39.5604 45.85 39.4389 45.5565 39.2225 45.3401C39.0061 45.1238 38.7126 45.0022 38.4066 45.0022H30.2374C29.9313 45.0022 29.6379 45.1238 29.4215 45.3401C29.2051 45.5565 29.0835 45.85 29.0835 46.156V56.4945H23.3736V2.2967H45.2835V56.4945ZM57.2242 53.7253C57.2242 54.4656 56.9305 55.1756 56.4077 55.6997C55.8848 56.2238 55.1755 56.5191 54.4352 56.5209H47.5978V28.3802H57.2242V53.7253Z" fill="black"/>
    <path d="M14.6967 42.833C14.6967 38.1319 8.53847 34.5846 8.27473 34.4396C8.10255 34.3394 7.9069 34.2866 7.7077 34.2866C7.50849 34.2866 7.31285 34.3394 7.14067 34.4396C6.87693 34.5846 0.718689 38.1319 0.718689 42.833C0.718689 47.0659 3.25056 50.5802 6.55385 51.2527V57.6813C6.55385 57.9873 6.67542 58.2808 6.89181 58.4972C7.1082 58.7136 7.40168 58.8352 7.7077 58.8352C8.01372 58.8352 8.3072 58.7136 8.52359 58.4972C8.73998 58.2808 8.86155 57.9873 8.86155 57.6813V51.2857C12.1648 50.5802 14.6967 47.0659 14.6967 42.833V42.833ZM3.02638 42.833C3.02638 40.3604 6.01319 37.8945 7.7077 36.7934C9.40221 37.8945 12.389 40.3472 12.389 42.833C12.389 45.7407 10.8857 48.1868 8.86155 48.8725V46.156C8.86155 45.85 8.73998 45.5565 8.52359 45.3401C8.3072 45.1238 8.01372 45.0022 7.7077 45.0022C7.40168 45.0022 7.1082 45.1238 6.89181 45.3401C6.67542 45.5565 6.55385 45.85 6.55385 46.156V48.8725C4.52968 48.1868 3.02638 45.7472 3.02638 42.833Z" fill="black"/>
</svg>
