<svg width="48" height="60" viewBox="0 0 48 60" fill="none" xmlns="http://www.w3.org/2000/svg">
    <path d="M46.3413 7.88648L39.5378 1.08281C38.8395 0.384492 37.9111 0 36.9236 0H3.3334C1.81278 0 0.575745 1.23715 0.575745 2.75766V57.2423C0.575745 58.763 1.81289 60 3.3334 60H44.6666C46.1872 60 47.4243 58.763 47.4243 57.2423V10.5007C47.4243 9.51328 47.0396 8.5848 46.3413 7.88648ZM45.6664 57.2423C45.6664 57.7937 45.2179 58.2422 44.6666 58.2422H3.3334C2.78203 58.2422 2.33356 57.7937 2.33356 57.2423V2.75766C2.33356 2.20629 2.78215 1.75781 3.3334 1.75781H35.3331V9.33352C35.3331 10.8541 36.5702 12.0912 38.0907 12.0912H42.7877C43.2731 12.0912 43.6666 11.6977 43.6666 11.2123C43.6666 10.7268 43.2731 10.3334 42.7877 10.3334H38.0907C37.5394 10.3334 37.0909 9.88477 37.0909 9.33352V1.7659C37.5456 1.80469 37.9683 1.99934 38.2948 2.3257L45.0984 9.12949C45.4648 9.4957 45.6664 9.98273 45.6664 10.5007V57.2423Z" fill="black"/>
    <path d="M39.9696 43.2119H39.0301C37.5095 43.2119 36.2725 44.449 36.2725 45.9696V46.909C36.2725 47.4603 35.8239 47.9088 35.2726 47.9088C34.7214 47.9088 34.2728 47.4603 34.2728 46.909V45.9696C34.2728 44.449 33.0356 43.2119 31.5151 43.2119C29.9946 43.2119 28.7575 44.449 28.7575 45.9696V48.7877C28.7575 49.3391 28.3089 49.7876 27.7576 49.7876H25.8789C25.3935 49.7876 25 50.1811 25 50.6665C25 51.152 25.3935 51.5454 25.8789 51.5454H27.7576C29.2783 51.5454 30.5153 50.3083 30.5153 48.7877V45.9696C30.5153 45.4182 30.9639 44.9698 31.5151 44.9698C32.0664 44.9698 32.515 45.4182 32.515 45.9696V46.909C32.515 48.4296 33.7521 49.6666 35.2726 49.6666C36.7931 49.6666 38.0303 48.4296 38.0303 46.909V45.9696C38.0303 45.4182 38.4789 44.9698 39.0301 44.9698H39.9696C40.455 44.9698 40.8485 44.5762 40.8485 44.0909C40.8485 43.6055 40.4551 43.2119 39.9696 43.2119Z" fill="black"/>
    <path d="M9.90915 35.5759H32.4545C32.9399 35.5759 33.3334 35.1824 33.3334 34.697C33.3334 34.2116 32.9399 33.8181 32.4545 33.8181H9.90915C9.42376 33.8181 9.03024 34.2116 9.03024 34.697C9.03024 35.1824 9.42376 35.5759 9.90915 35.5759Z" fill="black"/>
    <path d="M9.90915 28.0608H38.0908C38.5761 28.0608 38.9697 27.6673 38.9697 27.1819C38.9697 26.6965 38.5761 26.303 38.0908 26.303H9.90915C9.42376 26.303 9.03024 26.6965 9.03024 27.1819C9.03024 27.6673 9.42376 28.0608 9.90915 28.0608Z" fill="black"/>
    <path d="M9.90915 24.3032H38.0908C38.5761 24.3032 38.9697 23.9096 38.9697 23.4243C38.9697 22.9389 38.5761 22.5453 38.0908 22.5453H9.90915C9.42376 22.5453 9.03024 22.9389 9.03024 23.4243C9.03024 23.9096 9.42376 24.3032 9.90915 24.3032Z" fill="black"/>
    <path d="M19.303 15.8487H32.4545C32.9399 15.8487 33.3334 15.4551 33.3334 14.9698C33.3334 14.4844 32.9399 14.0909 32.4545 14.0909H19.303C18.8176 14.0909 18.4241 14.4844 18.4241 14.9698C18.4241 15.4551 18.8176 15.8487 19.303 15.8487Z" fill="black"/>
    <path d="M19.303 12.0912H32.4545C32.9399 12.0912 33.3334 11.6977 33.3334 11.2123C33.3334 10.7269 32.9399 10.3334 32.4545 10.3334H19.303C18.8176 10.3334 18.4241 10.7269 18.4241 11.2123C18.4241 11.6977 18.8176 12.0912 19.303 12.0912Z" fill="black"/>
    <path d="M9.90915 31.8183H38.0908C38.5761 31.8183 38.9697 31.4248 38.9697 30.9394C38.9697 30.454 38.5761 30.0605 38.0908 30.0605H9.90915C9.42376 30.0605 9.03024 30.454 9.03024 30.9394C9.03024 31.4248 9.42376 31.8183 9.90915 31.8183Z" fill="black"/>
    <path d="M10.8485 16.788H14.606C15.6087 16.788 16.4243 15.9724 16.4243 14.9698V11.2123C16.4243 10.2096 15.6087 9.39386 14.606 9.39386H10.8485C9.84587 9.39386 9.03024 10.2096 9.03024 11.2123V14.9698C9.03024 15.9724 9.84599 16.788 10.8485 16.788ZM10.7881 11.2123C10.7881 11.1789 10.8151 11.1517 10.8485 11.1517H14.606C14.6394 11.1517 14.6665 11.1787 14.6665 11.2123V14.9698C14.6665 15.003 14.6394 15.0302 14.606 15.0302H10.8485C10.8151 15.0302 10.7881 15.0032 10.7881 14.9698V11.2123Z" fill="black"/>
</svg>
