<svg width="34" height="35" viewBox="0 0 34 35" fill="none" xmlns="http://www.w3.org/2000/svg">
<g clip-path="url(#clip0_1156_5207)">
<path d="M33.2608 0.550537H0.739153C0.331153 0.550537 0 0.88169 0 1.28969V33.8114C0 34.2194 0.331153 34.5505 0.739153 34.5505H6.65217C7.06017 34.5505 7.39132 34.2194 7.39132 33.8114V33.0722H26.6087V33.8114C26.6087 34.2194 26.9398 34.5505 27.3478 34.5505H33.2608C33.6688 34.5505 34 34.2194 34 33.8114V1.28969C34 0.88169 33.6688 0.550537 33.2608 0.550537ZM32.5217 33.0722H28.0869V32.3331C28.0869 31.9251 27.7558 31.5939 27.3478 31.5939H6.65217C6.24417 31.5939 5.91302 31.9251 5.91302 32.3331V33.0722H1.47824V2.02877H32.5217V33.0722Z" fill="black"/>
<path d="M27.3479 7.94189H6.65224C6.24424 7.94189 5.91309 8.27305 5.91309 8.68105V32.3332C5.91309 32.7412 6.24424 33.0723 6.65224 33.0723H27.3479C27.7559 33.0723 28.0871 32.7412 28.0871 32.3332V8.68098C28.087 8.27298 27.7559 7.94189 27.3479 7.94189ZM26.6087 31.594H7.39139V9.42013H26.6087V31.594Z" fill="black"/>
<path d="M16.9999 7.94189C16.5919 7.94189 16.2607 8.27305 16.2607 8.68105V32.3332C16.2607 32.7412 16.5919 33.0723 16.9999 33.0723C17.4079 33.0723 17.739 32.7412 17.739 32.3332V8.68098C17.739 8.27298 17.4079 7.94189 16.9999 7.94189Z" fill="black"/>
<path d="M30.3041 16.8113C30.7123 16.8113 31.0432 16.4804 31.0432 16.0722C31.0432 15.6639 30.7123 15.333 30.3041 15.333C29.8959 15.333 29.5649 15.6639 29.5649 16.0722C29.5649 16.4804 29.8959 16.8113 30.3041 16.8113Z" fill="black"/>
<path d="M30.3041 19.7679C30.7123 19.7679 31.0432 19.4369 31.0432 19.0287C31.0432 18.6205 30.7123 18.2896 30.3041 18.2896C29.8959 18.2896 29.5649 18.6205 29.5649 19.0287C29.5649 19.4369 29.8959 19.7679 30.3041 19.7679Z" fill="black"/>
<path d="M14.5669 5.20273L13.0887 3.7245C12.8004 3.43624 12.3318 3.43624 12.0436 3.7245L10.5653 5.20273C10.2771 5.49099 10.2771 5.95963 10.5653 6.24789C10.8536 6.53615 11.3222 6.53615 11.6105 6.24789L12.5654 5.29143L13.5203 6.24789C13.6652 6.39125 13.8544 6.46373 14.0436 6.46373C14.2329 6.46373 14.4221 6.39132 14.5669 6.24789C14.8552 5.95963 14.8552 5.49099 14.5669 5.20273Z" fill="black"/>
<path d="M23.4347 3.7245C23.1464 3.43624 22.6778 3.43624 22.3895 3.7245L21.4346 4.67943L20.4781 3.7245C20.1899 3.43624 19.7213 3.43624 19.433 3.7245C19.1447 4.01276 19.1447 4.48139 19.433 4.76965L20.9112 6.24789C21.0561 6.39125 21.2453 6.46373 21.4345 6.46373C21.6238 6.46373 21.8129 6.39132 21.9564 6.24789L23.4346 4.76965C23.723 4.48132 23.7229 4.01276 23.4347 3.7245Z" fill="black"/>
</g>
<defs>
<clipPath id="clip0_1156_5207">
<rect width="34" height="34" fill="white" transform="translate(0 0.550537)"/>
</clipPath>
</defs>
</svg>
