<svg width="58" height="58" viewBox="0 0 58 58" fill="none" xmlns="http://www.w3.org/2000/svg">
    <path d="M56.5385 0.153839H42.6923C42.0552 0.153839 41.5385 0.670416 41.5385 1.30769V56.6923C41.5385 57.3295 42.0552 57.8461 42.6923 57.8461H56.5385C57.1756 57.8461 57.6923 57.3295 57.6923 56.6923V1.30769C57.6923 0.670416 57.1756 0.153839 56.5385 0.153839ZM55.3846 55.5385H43.8462V2.46153H55.3846V55.5385Z" fill="black"/>
    <path d="M38.0769 0.153839H35.7692C35.1321 0.153839 34.6154 0.670416 34.6154 1.30769C34.6154 1.94495 35.1321 2.46153 35.7692 2.46153H38.0769C38.7141 2.46153 39.2308 1.94495 39.2308 1.30769C39.2308 0.670416 38.7141 0.153839 38.0769 0.153839Z" fill="black"/>
    <path d="M31.1538 0.153839H28.8462C28.2089 0.153839 27.6923 0.670416 27.6923 1.30769C27.6923 1.94495 28.2089 2.46153 28.8462 2.46153H31.1538C31.791 2.46153 32.3077 1.94495 32.3077 1.30769C32.3077 0.670416 31.791 0.153839 31.1538 0.153839Z" fill="black"/>
    <path d="M24.2308 0.153839H21.9231C21.2858 0.153839 20.7692 0.670416 20.7692 1.30769C20.7692 1.94495 21.2858 2.46153 21.9231 2.46153H24.2308C24.868 2.46153 25.3846 1.94495 25.3846 1.30769C25.3846 0.670416 24.868 0.153839 24.2308 0.153839Z" fill="black"/>
    <path d="M17.3077 0.153839H15C14.3627 0.153839 13.8462 0.670416 13.8462 1.30769C13.8462 1.94495 14.3627 2.46153 15 2.46153H17.3077C17.945 2.46153 18.4615 1.94495 18.4615 1.30769C18.4615 0.670416 17.945 0.153839 17.3077 0.153839Z" fill="black"/>
    <path d="M8.07693 2.46153H10.3846C11.0219 2.46153 11.5385 1.94495 11.5385 1.30769C11.5385 0.670416 11.0219 0.153839 10.3846 0.153839H8.07693C7.43966 0.153839 6.92308 0.670416 6.92308 1.30769C6.92308 1.94495 7.43966 2.46153 8.07693 2.46153Z" fill="black"/>
    <path d="M1.15385 2.46153H3.46154C4.09881 2.46153 4.61538 1.94495 4.61538 1.30769C4.61538 0.670416 4.09881 0.153839 3.46154 0.153839H1.15385C0.516577 0.153839 0 0.670416 0 1.30769C0 1.94495 0.516577 2.46153 1.15385 2.46153Z" fill="black"/>
    <path d="M38.0769 55.5385H35.7692C35.1321 55.5385 34.6154 56.0551 34.6154 56.6923C34.6154 57.3295 35.1321 57.8461 35.7692 57.8461H38.0769C38.7141 57.8461 39.2308 57.3295 39.2308 56.6923C39.2308 56.0551 38.7141 55.5385 38.0769 55.5385Z" fill="black"/>
    <path d="M31.1538 55.5385H28.8462C28.2089 55.5385 27.6923 56.0551 27.6923 56.6923C27.6923 57.3295 28.2089 57.8461 28.8462 57.8461H31.1538C31.791 57.8461 32.3077 57.3295 32.3077 56.6923C32.3077 56.0551 31.791 55.5385 31.1538 55.5385Z" fill="black"/>
    <path d="M24.2308 55.5385H21.9231C21.2858 55.5385 20.7692 56.0551 20.7692 56.6923C20.7692 57.3295 21.2858 57.8461 21.9231 57.8461H24.2308C24.868 57.8461 25.3846 57.3295 25.3846 56.6923C25.3846 56.0551 24.868 55.5385 24.2308 55.5385Z" fill="black"/>
    <path d="M17.3077 55.5385H15C14.3627 55.5385 13.8462 56.0551 13.8462 56.6923C13.8462 57.3295 14.3627 57.8461 15 57.8461H17.3077C17.945 57.8461 18.4615 57.3295 18.4615 56.6923C18.4615 56.0551 17.945 55.5385 17.3077 55.5385Z" fill="black"/>
    <path d="M10.3846 55.5385H8.07693C7.43966 55.5385 6.92308 56.0551 6.92308 56.6923C6.92308 57.3295 7.43966 57.8461 8.07693 57.8461H10.3846C11.0219 57.8461 11.5385 57.3295 11.5385 56.6923C11.5385 56.0551 11.0219 55.5385 10.3846 55.5385Z" fill="black"/>
    <path d="M3.46154 55.5385H1.15385C0.516577 55.5385 0 56.0551 0 56.6923C0 57.3295 0.516577 57.8461 1.15385 57.8461H3.46154C4.09881 57.8461 4.61538 57.3295 4.61538 56.6923C4.61538 56.0551 4.09881 55.5385 3.46154 55.5385Z" fill="black"/>
    <path d="M1.15385 35.9231H15C15.6373 35.9231 16.1538 35.4064 16.1538 34.7692V23.2308C16.1538 22.5935 15.6373 22.0769 15 22.0769H1.15385C0.516577 22.0769 0 22.5935 0 23.2308V34.7692C0 35.4064 0.516577 35.9231 1.15385 35.9231ZM2.30769 24.3846H13.8462V33.6154H2.30769V24.3846Z" fill="black"/>
    <path d="M8.07692 19.7692C8.71419 19.7692 9.23077 19.2526 9.23077 18.6154V8.70868L11.8764 11.3543C12.3269 11.8048 13.0576 11.8049 13.5083 11.3543C13.959 10.9038 13.9589 10.1731 13.5083 9.72244C8.60342 4.81848 8.82415 5.00021 8.56661 4.87941C8.2755 4.74256 7.93731 4.73206 7.63511 4.85725C7.35219 4.97437 7.58042 4.79125 2.64565 9.72256C2.19508 10.1731 2.19508 10.9038 2.64565 11.3544C3.09623 11.8051 3.82684 11.805 4.27754 11.3544L6.92308 8.70868V18.6154C6.92308 19.2526 7.43965 19.7692 8.07692 19.7692Z" fill="black"/>
    <path d="M13.5082 46.6457C13.0576 46.1952 12.327 46.1952 11.8763 46.6457L9.23077 49.2912V39.3846C9.23077 38.7475 8.71419 38.2308 8.07692 38.2308C7.43965 38.2308 6.92308 38.7475 6.92308 39.3846V49.2912L4.27742 46.6455C3.82685 46.1951 3.09623 46.1951 2.64554 46.6455C2.19496 47.0961 2.19496 47.8267 2.64554 48.2774C7.53219 53.163 7.32935 52.9998 7.5855 53.1197C7.89842 53.2687 8.26142 53.2658 8.56835 53.1197C8.84746 52.989 8.62627 53.1452 13.5083 48.2774C13.9589 47.8269 13.9589 47.0962 13.5082 46.6457Z" fill="black"/>
</svg>
