<svg width="54" height="60" viewBox="0 0 54 60" fill="none" xmlns="http://www.w3.org/2000/svg">
<path d="M50.0724 7.56152H48.6337V3.17578C48.6337 1.42465 47.2089 0 45.4578 0H6.82038C5.06924 0 3.64459 1.42465 3.64459 3.17578V3.59133H1.01702C0.530571 3.59133 0.136353 3.98555 0.136353 4.47199V12.4124C0.136353 12.8988 0.530571 13.293 1.01702 13.293H3.64459V13.7087C3.64459 15.4598 5.06924 16.8845 6.82038 16.8845H12.5915V21.2685C12.5915 23.1873 14.1526 24.7484 16.0714 24.7484C17.9901 24.7484 19.5512 23.1873 19.5512 21.2685V16.8845H33.2118C33.6983 16.8845 34.0925 16.4903 34.0925 16.0038C34.0925 15.5174 33.6983 15.1232 33.2118 15.1232H19.551V7.83938C19.551 6.8918 20.322 6.12094 21.2696 6.12094C22.2172 6.12094 22.988 6.8918 22.988 7.83938V9.81328C22.988 11.732 24.5491 13.293 26.4679 13.293C28.3866 13.293 29.9477 11.732 29.9477 9.81328V1.76133H45.4578C46.2378 1.76133 46.8724 2.3959 46.8724 3.17578V13.7087C46.8724 14.4887 46.2378 15.1233 45.4578 15.1233H36.7342C36.2478 15.1233 35.8536 15.5175 35.8536 16.0039C35.8536 16.4904 36.2478 16.8846 36.7342 16.8846H45.4578C47.2089 16.8846 48.6337 15.4601 48.6337 13.7088V9.32285H50.0724C50.8524 9.32285 51.487 9.95742 51.487 10.7373V17.5093C51.487 18.198 50.9946 18.784 50.3163 18.9026L28.9196 22.6478C27.3967 22.9143 26.2913 24.2298 26.2913 25.776V28.8438H23.7935C23.307 28.8438 22.9128 29.238 22.9128 29.7245V33.0322H22.7217C22.2352 33.0322 21.841 33.4264 21.841 33.9129V54.6691C21.841 57.6086 24.2324 60 27.1719 60C30.1113 60 32.5027 57.6086 32.5027 54.6691V47.7499C32.5027 47.2635 32.1085 46.8693 31.6221 46.8693C31.1356 46.8693 30.7414 47.2635 30.7414 47.7499V54.6691C30.7414 56.6375 29.1401 58.2388 27.1717 58.2388C25.2035 58.2388 23.6021 56.6375 23.6021 54.6691V34.7934H30.7414V44.2274C30.7414 44.7138 31.1356 45.108 31.6221 45.108C32.1085 45.108 32.5027 44.7138 32.5027 44.2274V33.9128C32.5027 33.4263 32.1085 33.0321 31.6221 33.0321H31.4308V29.7244C31.4308 29.2379 31.0366 28.8437 30.5501 28.8437H28.0524V25.7759C28.0524 25.0871 28.5447 24.5012 29.223 24.3826L50.6197 20.6374C52.1426 20.3709 53.2481 19.0554 53.2481 17.5092V10.7373C53.2483 8.98617 51.8235 7.56152 50.0724 7.56152ZM1.89768 11.5317V5.35254H3.64459V11.5317H1.89768ZM28.1865 9.81328C28.1865 10.7609 27.4156 11.5317 26.468 11.5317C25.5205 11.5317 24.7494 10.7609 24.7494 9.81328V7.83938C24.7494 5.92066 23.1883 4.35961 21.2696 4.35961C19.3508 4.35961 17.7897 5.92066 17.7897 7.83938V21.2684C17.7897 22.2159 17.0187 22.9869 16.0712 22.9869C15.1236 22.9869 14.3527 22.2159 14.3527 21.2684V10.2035C14.3527 9.71707 13.9585 9.32285 13.4721 9.32285C12.9856 9.32285 12.5914 9.71707 12.5914 10.2035V15.1232H6.82038C6.04049 15.1232 5.40592 14.4886 5.40592 13.7086V3.17578C5.40592 2.39578 6.04049 1.76133 6.82038 1.76133H12.5915V6.68098C12.5915 7.16742 12.9857 7.56164 13.4722 7.56164C13.9586 7.56164 14.3528 7.16742 14.3528 6.68098V1.76121H28.1865V9.81328ZM29.6697 33.0322H24.6741V30.6052H29.6697V33.0322Z" fill="black"/>
</svg>
