<svg width="60" height="60" viewBox="0 0 60 60" fill="none" xmlns="http://www.w3.org/2000/svg">
<g clip-path="url(#clip0_2_159)">
<path d="M30 60C21.9859 60 14.4525 56.8794 8.78632 51.2137C3.12057 45.5479 0 38.0141 0 30C0 21.9859 3.12057 14.4525 8.78632 8.78632C14.4525 3.12057 21.9859 0 30 0C38.0141 0 45.5479 3.12057 51.2137 8.78632C56.8794 14.4525 60 21.9859 60 30C60 38.0141 56.8794 45.5479 51.2137 51.2137C45.5479 56.8794 38.0141 60 30 60ZM30 2.36023C14.7592 2.36023 2.36069 14.7592 2.36069 30C2.36069 45.2408 14.7592 57.6398 30 57.6398C45.2408 57.6398 57.6393 45.2408 57.6393 30C57.6393 14.7592 45.2408 2.36023 30 2.36023Z" fill="black"/>
<path d="M35.0139 55.0356C34.4669 55.0356 33.9761 54.6529 33.8599 54.0967C33.7267 53.4586 34.1354 52.8333 34.7736 52.6996C45.4459 50.4684 53.1912 40.9218 53.1912 30C53.1912 17.2124 42.7876 6.80878 30 6.80878C17.2124 6.80878 6.80878 17.2124 6.80878 30C6.80878 40.9062 14.5409 50.4501 25.1944 52.6936C25.8325 52.8278 26.2404 53.4535 26.1063 54.0916C25.9721 54.7293 25.3464 55.1376 24.7083 55.0031C19.059 53.8138 13.9197 50.6868 10.2374 46.1989C6.50436 41.6492 4.44809 35.8965 4.44809 30C4.44809 23.1738 7.10587 16.7569 11.9312 11.9312C16.7569 7.10587 23.1738 4.44855 30 4.44855C36.8248 4.44855 43.2413 7.10587 48.0675 11.9312C52.8937 16.7574 55.5519 23.1743 55.5519 30C55.5519 35.9029 53.4915 41.6606 49.7502 46.2131C46.0606 50.7033 40.9131 53.8275 35.2565 55.0104C35.1755 55.0273 35.094 55.0356 35.0139 55.0356Z" fill="black"/>
<path d="M30.0233 55.5519H30C29.3481 55.5519 28.8199 55.0232 28.8199 54.3718C28.8199 53.7199 29.3481 53.1912 30 53.1912H30.0233C30.6752 53.1912 31.2035 53.7199 31.2035 54.3718C31.2039 55.0232 30.6752 55.5519 30.0233 55.5519Z" fill="black"/>
<path d="M24.0555 47.1318C22.7806 47.1318 21.6632 46.6626 20.7339 45.7379C19.8079 44.8119 19.3396 43.6642 19.3396 42.3253V17.7759C19.3396 16.4076 19.8157 15.2371 20.7555 14.2978C21.6948 13.358 22.8493 12.8819 24.1864 12.8819H32.4861C36.0745 12.8819 39.0537 13.9925 41.3397 16.1819C43.6404 18.3856 44.8068 21.2727 44.8068 24.7636C44.8068 28.2193 43.7041 31.0666 41.5297 33.2263C39.3617 35.3792 36.4668 36.4705 32.9251 36.4705H28.775V42.4127C28.775 43.694 28.3067 44.8123 27.3825 45.7361C26.4514 46.6626 25.3326 47.1318 24.0555 47.1318ZM24.1864 15.2422C23.4883 15.2422 22.912 15.4793 22.4245 15.9668C21.9301 16.4612 21.6998 17.0357 21.6998 17.7759V42.3253C21.6998 43.0353 21.9228 43.5887 22.4007 44.0671C22.8831 44.5468 23.4096 44.7711 24.0555 44.7711C24.7037 44.7711 25.2315 44.5468 25.7153 44.0648C26.1919 43.5887 26.4148 43.0627 26.4148 42.4123V34.1103H32.9256C35.8621 34.1103 38.1326 33.273 39.8662 31.5514C41.6025 29.827 42.4466 27.6068 42.4466 24.7636C42.4466 21.9017 41.5508 19.6523 39.7073 17.8867C37.8493 16.1073 35.4872 15.2422 32.4861 15.2422H24.1864ZM32.0934 30.271H26.4148V19.2155H32.1368C33.6667 19.2155 34.964 19.7768 35.9935 20.8836C36.9997 21.9608 37.5105 23.2828 37.5105 24.8103C37.5105 26.2903 36.969 27.5839 35.9015 28.6555C34.8294 29.7281 33.5486 30.271 32.0934 30.271ZM28.775 27.9108H32.0934C32.9114 27.9108 33.6104 27.6091 34.2311 26.9884C34.8491 26.3681 35.1498 25.6549 35.1498 24.8103C35.1498 23.8875 34.861 23.1294 34.2664 22.4927C33.6845 21.8665 33.0084 21.5758 32.1368 21.5758H28.775V27.9108Z" fill="black"/>
</g>
<defs>
<clipPath id="clip0_2_159">
<rect width="60" height="60" fill="white"/>
</clipPath>
</defs>
</svg>
