
<svg width="31" height="31" viewBox="0 0 31 31" fill="none" xmlns="http://www.w3.org/2000/svg">
<g clip-path="url(#clip0_1156_5245)">
<path d="M16.9965 7.53198H11.6328V22.9738H13.3906V18.0788H16.9965C19.8545 18.0788 22.1797 15.7536 22.1797 12.8957V12.7151C22.1797 9.85716 19.8545 7.53198 16.9965 7.53198ZM20.4219 12.8957C20.4219 14.7844 18.8853 16.321 16.9965 16.321H13.3906V9.28979H16.9965C18.8853 9.28979 20.4219 10.8264 20.4219 12.7151V12.8957Z" fill="black"/>
<path d="M26.1066 4.64629C23.2735 1.81316 19.5066 0.25293 15.5 0.25293C11.4934 0.25293 7.72654 1.81316 4.89336 4.64629C2.06029 7.47947 0.5 11.2463 0.5 15.2529C0.5 19.2595 2.06029 23.0264 4.89342 25.8595C7.72654 28.6926 11.4934 30.2529 15.5 30.2529C19.5066 30.2529 23.2735 28.6927 26.1066 25.8596C28.9397 23.0264 30.5 19.2595 30.5 15.2529C30.5 11.2463 28.9397 7.47947 26.1066 4.64629ZM24.8637 24.6166C22.3625 27.1177 19.0371 28.4951 15.5 28.4951C11.9629 28.4951 8.6375 27.1177 6.13637 24.6166C3.63523 22.1154 2.25781 18.79 2.25781 15.2529C2.25781 11.7159 3.63523 8.39043 6.13637 5.88924C8.6375 3.38816 11.9629 2.01074 15.5 2.01074C19.0371 2.01074 22.3625 3.38816 24.8637 5.88924C27.3648 8.39043 28.7422 11.7159 28.7422 15.2529C28.7422 18.79 27.3648 22.1154 24.8637 24.6166Z" fill="black"/>
</g>
<defs>
<clipPath id="clip0_1156_5245">
<rect width="30" height="30" fill="white" transform="translate(0.5 0.25293)"/>
</clipPath>
</defs>
</svg>
