<svg width="60" height="60" viewBox="0 0 60 60" fill="none" xmlns="http://www.w3.org/2000/svg">
<g clip-path="url(#clip0_2_153)">
<path d="M58.1327 1.86728C56.3245 0.0591183 53.7226 -0.483788 51.3418 0.44959L38.7611 5.38336C38.1586 5.61956 37.8616 6.2998 38.0982 6.90222C38.3344 7.50463 39.0142 7.80172 39.6171 7.56551L52.1978 2.63175C53.9899 1.92862 55.5825 2.6322 56.4756 3.52484C57.3682 4.41748 58.0713 6.01004 57.3687 7.80263L43.156 44.0433C42.6553 45.3195 41.5987 46.2121 40.257 46.4923C38.9158 46.7724 37.5896 46.3769 36.6206 45.4079L28.2865 37.0738L34.34 31.0208C35.8199 29.5409 35.8199 27.133 34.34 25.6531C33.6231 24.9362 32.6701 24.5412 31.6561 24.5412C30.6422 24.5412 29.6891 24.9362 28.9723 25.6531L22.9193 31.7061L14.5926 23.3798C13.6235 22.4103 13.228 21.0851 13.5081 19.7434C13.7883 18.4017 14.6809 17.3447 15.9571 16.8444L29.7976 11.4162C30.4005 11.18 30.6971 10.5002 30.4609 9.89736C30.2247 9.29494 29.5449 8.99785 28.942 9.23452L15.1011 14.6622C13.1053 15.445 11.6519 17.1653 11.2138 19.2641C10.7757 21.3629 11.4189 23.5213 12.935 25.0369L21.2617 33.3637L18.0203 36.6051L17.016 35.6003C16.6031 35.1874 16.0537 34.9599 15.4696 34.9599C14.8855 34.9599 14.3362 35.1874 13.9233 35.6003L2.16475 47.3588C-0.721442 50.245 -0.721442 54.9417 2.16475 57.8283C3.56322 59.2263 5.42219 59.9963 7.39973 59.9963C9.37681 59.9963 11.2358 59.2263 12.6342 57.8283L24.3928 46.0698C25.2452 45.217 25.2452 43.8299 24.3928 42.9771L23.388 41.9723L26.629 38.7314L34.963 47.0654C36.166 48.268 37.7723 48.9216 39.4331 48.9216C39.8656 48.9216 40.3023 48.8772 40.7359 48.7866C42.8347 48.3485 44.555 46.8951 45.3377 44.8993L59.5504 8.65819C60.4842 6.27783 59.9408 3.6759 58.1327 1.86728ZM10.9767 56.1708C10.0213 57.1261 8.75105 57.6526 7.39973 57.6526C6.04841 57.6526 4.77766 57.1261 3.82231 56.1708C2.86696 55.215 2.34053 53.9447 2.34053 52.5934C2.34053 51.242 2.8665 49.9713 3.82231 49.0159L15.4696 37.3686L22.6245 44.5235L10.9767 56.1708ZM30.6294 27.3102C30.9036 27.0365 31.2684 26.8854 31.6561 26.8854C32.0438 26.8854 32.4082 27.0365 32.6824 27.3102C33.2487 27.8765 33.2487 28.7975 32.6824 29.3633L21.7309 40.3152L19.6778 38.2622L30.6294 27.3102Z" fill="black"/>
<path d="M34.2796 9.57141C34.5876 9.57141 34.8902 9.44644 35.1081 9.22809C35.326 9.01019 35.4514 8.70807 35.4514 8.39953C35.4514 8.09146 35.326 7.78934 35.1081 7.57098C34.8902 7.35309 34.5876 7.22766 34.2796 7.22766C33.971 7.22766 33.6689 7.35309 33.451 7.57098C33.2331 7.78934 33.1077 8.09146 33.1077 8.39953C33.1077 8.70807 33.2327 9.01019 33.451 9.22809C33.6689 9.44644 33.9715 9.57141 34.2796 9.57141Z" fill="black"/>
</g>
<defs>
<clipPath id="clip0_2_153">
<rect width="60" height="60" fill="white"/>
</clipPath>
</defs>
</svg>
